<?xml version="1.0" encoding="UTF-8"?>
<svg version="1.1" xmlns="http://www.w3.org/2000/svg" width="224" height="224">
<path d="M0 0 C73.92 0 147.84 0 224 0 C224 73.92 224 147.84 224 224 C150.08 224 76.16 224 0 224 C0 150.08 0 76.16 0 0 Z " fill="#EEEEEE" transform="translate(0,0)"/>
<path d="M0 0 C0.66 0 1.32 0 2 0 C2.98248524 4.0527516 3.08159574 7.83861737 3 12 C3.99 12 4.98 12 6 12 C6.144375 11.236875 6.28875 10.47375 6.4375 9.6875 C7 7 7 7 8 4 C8.66 4 9.32 4 10 4 C10.495 7.465 10.495 7.465 11 11 C12.32 9.35 13.64 7.7 15 6 C15 8.64 15 11.28 15 14 C15.99 14 16.98 14 18 14 C18.37125 12.9171875 18.37125 12.9171875 18.75 11.8125 C20 9 20 9 24 4 C23.34 8.29 22.68 12.58 22 17 C24.64 15.02 27.28 13.04 30 11 C29.34 13.64 28.68 16.28 28 19 C30.31 17.35 32.62 15.7 35 14 C34.67 14.928125 34.34 15.85625 34 16.8125 C32.85032996 19.92029291 32.85032996 19.92029291 33 23 C36.3 21.02 39.6 19.04 43 17 C41.11900578 20.76198844 39.10046807 24.35918868 37 28 C39.97 27.01 42.94 26.02 46 25 C44 29 44 29 42 32 C44.31 31.67 46.62 31.34 49 31 C47.71937515 32.7074998 46.38232443 34.37373596 45 36 C44.34 36 43.68 36 43 36 C43 36.66 43 37.32 43 38 C47.29 37.34 51.58 36.68 56 36 C52.85132448 39.14867552 50.67466905 40.81506164 47 43 C46.505 43.99 46.505 43.99 46 45 C48.97 45 51.94 45 55 45 C52 48 52 48 49 49 C51.64 49.66 54.28 50.32 57 51 C55 53 55 53 51.9375 54 C48.87849194 54.65752556 48.87849194 54.65752556 48 57 C48.85464844 57.04898438 49.70929688 57.09796875 50.58984375 57.1484375 C51.69457031 57.22320312 52.79929687 57.29796875 53.9375 57.375 C55.03964844 57.44460937 56.14179688 57.51421875 57.27734375 57.5859375 C58.62505859 57.79089844 58.62505859 57.79089844 60 58 C60.33 58.66 60.66 59.32 61 60 C56.71 60.33 52.42 60.66 48 61 C48 61.99 48 62.98 48 64 C49.11375 64.185625 49.11375 64.185625 50.25 64.375 C52.80141485 64.95486701 54.7267573 65.73708739 57 67 C57 67.33 57 67.66 57 68 C54.36 68.33 51.72 68.66 49 69 C49.825 69.474375 50.65 69.94875 51.5 70.4375 C52.325 70.953125 53.15 71.46875 54 72 C54 72.33 54 72.66 54 73 C51.36 73 48.72 73 46 73 C49.16952847 76.26008643 52.39937989 79.22237877 56 82 C51.62065881 81.48041715 47.31196609 80.94324258 43 80 C44.98 82.64 46.96 85.28 49 88 C46.36 87.34 43.72 86.68 41 86 C42.65 88.31 44.3 90.62 46 93 C43.03 92.01 40.06 91.02 37 90 C37.639375 91.093125 38.27875 92.18625 38.9375 93.3125 C40.26601325 95.5838291 41.15813297 97.47439892 42 100 C37 97.5 37 97.5 32 95 C32.99 97.97 33.98 100.94 35 104 C34.34 104 33.68 104 33 104 C33 103.34 33 102.68 33 102 C31.02 101.01 31.02 101.01 29 100 C29 100.99 29 101.98 29 103 C28.6937566 104.33981486 28.36548445 105.67511887 28 107 C27.38125 106.195625 26.7625 105.39125 26.125 104.5625 C24.25835959 101.96125481 24.25835959 101.96125481 22 101 C22.66 105.29 23.32 109.58 24 114 C21.36335259 111.36335259 19.744776 109.24029829 18 106 C18 105.34 18 104.68 18 104 C17.01 104 16.02 104 15 104 C15 106.97 15 109.94 15 113 C13.49440461 111.03617993 12.10868317 109.21736634 11 107 C10.34 109.64 9.68 112.28 9 115 C6.87491756 111.81237635 6.4979837 109.73487777 6 106 C5.01 106.495 5.01 106.495 4 107 C3.30772968 109.80980673 3.30772968 109.80980673 2.875 113.0625 C2.70742187 114.16722656 2.53984375 115.27195312 2.3671875 116.41015625 C2.18542969 117.69212891 2.18542969 117.69212891 2 119 C1.01 118.505 1.01 118.505 0 118 C-0.4140625 115.27734375 -0.4140625 115.27734375 -0.625 111.9375 C-0.69976562 110.83277344 -0.77453125 109.72804688 -0.8515625 108.58984375 C-0.90054688 107.73519531 -0.94953125 106.88054687 -1 106 C-3.64107354 108.46741391 -4.79641403 110.57440916 -6 114 C-8 111 -8 111 -9 108 C-10.32 109.65 -11.64 111.3 -13 113 C-13 110.03 -13 107.06 -13 104 C-16.25524265 107.02272532 -18.61820737 110.25718301 -21 114 C-22.84116575 110.3176685 -20.84195 105.86306473 -20 102 C-22.64 103.98 -25.28 105.96 -28 108 C-27.34 105.36 -26.68 102.72 -26 100 C-28.31 101.32 -30.62 102.64 -33 104 C-31.125 98.25 -31.125 98.25 -30 96 C-33.45925163 97.2491742 -36.14693203 98.67527795 -39 101 C-39.66 100.67 -40.32 100.34 -41 100 C-37.535 95.05 -37.535 95.05 -34 90 C-37.3 90.99 -40.6 91.98 -44 93 C-42.02 90.36 -40.04 87.72 -38 85 C-41.3 85.99 -44.6 86.98 -48 88 C-47.21625 87.236875 -46.4325 86.47375 -45.625 85.6875 C-42.92742283 83.09108195 -42.92742283 83.09108195 -41 80 C-41.60328125 80.15597656 -42.2065625 80.31195313 -42.828125 80.47265625 C-43.62734375 80.66730469 -44.4265625 80.86195313 -45.25 81.0625 C-46.03890625 81.25972656 -46.8278125 81.45695312 -47.640625 81.66015625 C-50.10394822 82.01497267 -51.65604132 81.76877544 -54 81 C-52.71186658 80.16121545 -51.41936744 79.32913217 -50.125 78.5 C-49.04605469 77.80390625 -49.04605469 77.80390625 -47.9453125 77.09375 C-46 76 -46 76 -44 76 C-44 75.01 -44 74.02 -44 73 C-46.97 73 -49.94 73 -53 73 C-51.03617993 71.49440461 -49.21736634 70.10868317 -47 69 C-49.31 68.34 -51.62 67.68 -54 67 C-51.4345406 64.4345406 -49.52313332 64.45953913 -46 64 C-46 63.34 -46 62.68 -46 62 C-49.96 61.34 -53.92 60.68 -58 60 C-57.67 59.34 -57.34 58.68 -57 58 C-54.49609375 57.5859375 -54.49609375 57.5859375 -51.4375 57.375 C-50.42558594 57.30023438 -49.41367187 57.22546875 -48.37109375 57.1484375 C-47.58863281 57.09945312 -46.80617188 57.05046875 -46 57 C-48.46741391 54.35892646 -50.57440916 53.20358597 -54 52 C-51.38058783 50.25372522 -49.96175123 49.61277612 -47 49 C-48.98 48.01 -50.96 47.02 -53 46 C-53 45.67 -53 45.34 -53 45 C-50.03 45 -47.06 45 -44 45 C-47.11016455 41.71211176 -50.01618925 39.16264012 -54 37 C-51.2780754 35.6390377 -49.8168043 36.29633752 -46.875 36.9375 C-45.50988281 37.22947266 -45.50988281 37.22947266 -44.1171875 37.52734375 C-43.06917969 37.76130859 -43.06917969 37.76130859 -42 38 C-43.36983503 34.83884224 -43.9890638 34.0072908 -47 32 C-46.67 31.34 -46.34 30.68 -46 30 C-43.69 30.66 -41.38 31.32 -39 32 C-40.65 29.69 -42.3 27.38 -44 25 C-43.071875 25.33 -42.14375 25.66 -41.1875 26 C-38.07970709 27.14967004 -38.07970709 27.14967004 -35 27 C-36.98 24.36 -38.96 21.72 -41 19 C-40.67 18.34 -40.34 17.68 -40 17 C-37.36 18.98 -34.72 20.96 -32 23 C-31.34 22.67 -30.68 22.34 -30 22 C-30.66 19.69 -31.32 17.38 -32 15 C-30.02 16.32 -28.04 17.64 -26 19 C-26.33 16.36 -26.66 13.72 -27 11 C-24.69 12.98 -22.38 14.96 -20 17 C-20.99 10.565 -20.99 10.565 -22 4 C-19.36335259 6.63664741 -17.744776 8.75970171 -16 12 C-16 12.66 -16 13.32 -16 14 C-15.01 14 -14.02 14 -13 14 C-13 11.03 -13 8.06 -13 5 C-11.49440461 6.96382007 -10.10868317 8.78263366 -9 11 C-8.34 8.69 -7.68 6.38 -7 4 C-4.37613513 7.06117568 -4 7.73173127 -4 12 C-3.01 12 -2.02 12 -1 12 C-0.67 8.04 -0.34 4.08 0 0 Z " fill="#F4F4F4" transform="translate(111,53)"/>
<path d="M0 0 C73.92 0 147.84 0 224 0 C224 34.65 224 69.3 224 105 C223.67 105 223.34 105 223 105 C222.79697266 103.05673828 222.79697266 103.05673828 222.58984375 101.07421875 C219.01039928 70.27523043 204.75749106 43.51858869 180.43359375 23.93359375 C178.00558745 22.19150898 175.53737021 20.57802499 173 19 C172.1234375 18.42894531 171.246875 17.85789062 170.34375 17.26953125 C146.05458494 2.15553156 115.34903904 -2.67486844 87.38232422 3.54052734 C79.32096708 5.62062437 71.48123958 8.33293172 64 12 C62.9584375 12.50144531 61.916875 13.00289062 60.84375 13.51953125 C32.9458607 27.70095831 14.79268418 51.75447053 5.04296875 81.13671875 C2.2084025 91.06695528 1.61112627 100.76503578 1.625 111.0625 C1.62554382 111.74531036 1.62608765 112.42812073 1.62664795 113.13162231 C1.66700908 124.17426654 2.5548672 134.45747413 6 145 C6.21430664 145.6801416 6.42861328 146.3602832 6.64941406 147.06103516 C11.24214258 161.32389729 18.21919194 173.61905975 28 185 C28.77537109 185.99193359 28.77537109 185.99193359 29.56640625 187.00390625 C46.67438701 208.22809291 74.6820305 219.53440037 101 223 C101 223.33 101 223.66 101 224 C67.67 224 34.34 224 0 224 C0 150.08 0 76.16 0 0 Z " fill="#FCFCFC" transform="translate(0,0)"/>
<path d="M0 0 C24.63047904 16.20096395 45.01474503 40.68067706 51.32692909 70.10680199 C54.20462912 85.73477472 54.26831877 101.24163877 54.16796875 117.08203125 C54.16235836 119.72002417 54.15809511 122.35802026 54.15510559 124.99601746 C54.14588592 131.16840002 54.12141328 137.34061776 54.09105712 143.51292866 C54.05719344 150.55557982 54.0409479 157.59824004 54.02597082 164.64095271 C53.99485101 179.09405239 53.94229332 193.54702388 53.875 208 C38.13141895 208.07042098 22.38788119 208.12314885 6.64418125 208.15543652 C-0.66768633 208.17083398 -7.97945544 208.19178522 -15.29125977 208.22631836 C-21.6723213 208.25644101 -28.05331143 208.27562658 -34.4344421 208.28226548 C-37.80592504 208.28613958 -41.17704373 208.29672317 -44.54849052 208.31719017 C-61.66550474 208.41688942 -78.4977933 208.44974197 -94.75 202.3125 C-95.7877356 201.93121948 -95.7877356 201.93121948 -96.84643555 201.54223633 C-109.14854209 196.85725537 -119.9390111 190.34445418 -130.125 182 C-130.97578125 181.31421875 -131.8265625 180.6284375 -132.703125 179.921875 C-152.80945898 162.85045936 -165.98678927 137.11387023 -169.125 111 C-169.43868258 105.97579783 -169.50708903 100.97071476 -169.5 95.9375 C-169.49912384 95.2543573 -169.49824768 94.5712146 -169.49734497 93.86737061 C-169.45079581 82.8440786 -168.691813 72.49815744 -165.125 62 C-164.88894043 61.29810547 -164.65288086 60.59621094 -164.40966797 59.87304688 C-158.60958697 43.25437507 -149.44387022 29.45318812 -137.125 17 C-136.54492188 16.35933594 -135.96484375 15.71867187 -135.3671875 15.05859375 C-120.35426481 -1.19911901 -99.18585875 -9.24911142 -78.125 -14 C-77.21161865 -14.26828613 -77.21161865 -14.26828613 -76.27978516 -14.54199219 C-50.89804739 -19.93697746 -21.86126414 -13.03960108 0 0 Z M-136.53979492 27.69433594 C-142.47316994 34.5635778 -147.03437451 41.91764326 -151.125 50 C-151.68058594 51.08667969 -152.23617187 52.17335937 -152.80859375 53.29296875 C-162.70583186 74.34619596 -165.16651385 101.74881622 -158.125 124 C-157.76148438 125.16273438 -157.39796875 126.32546875 -157.0234375 127.5234375 C-147.8979025 154.66454484 -129.3017953 176.89929558 -103.60546875 189.76171875 C-75.93322769 202.09155006 -47.83595186 203.05610772 -19.5546875 192.79296875 C-7.80298077 188.2257228 2.5837732 181.4977214 11.875 173 C13.15117187 171.84564453 13.15117187 171.84564453 14.453125 170.66796875 C34.14128534 151.97629505 44.61718726 125.74645898 46.1640625 98.890625 C46.79059153 70.07028948 35.558256 43.76804748 15.875 23 C-2.49760281 4.15479004 -28.50169358 -7.0254503 -54.77807617 -7.38061523 C-86.71545988 -7.32801518 -114.78237704 3.53341776 -136.53979492 27.69433594 Z " fill="#F3F3F3" transform="translate(170.125,16)"/>
<path d="M0 0 C0.90758057 0.38720215 0.90758057 0.38720215 1.83349609 0.78222656 C20.24429431 8.81166428 31.25879165 21.04827622 39.06640625 39.5234375 C45.21393929 55.83111929 42.292984 73.48865684 35.51171875 89.046875 C27.41299683 104.86763409 14.69967929 115.07489424 -1.88671875 121 C-18.06199976 126.19557332 -34.86440345 125.27717322 -50.1875 117.8125 C-65.18794517 109.87893122 -76.90524404 98.07385596 -82.14599609 81.73828125 C-83.13707251 78.50294316 -84.07285279 75.25424978 -85 72 C-85.33 71.01 -85.66 70.02 -86 69 C-87.28831176 51.53387175 -83.79705527 35.2652938 -72.828125 21.21875 C-70.63670592 18.70995299 -68.36738936 16.34246948 -66 14 C-65.40960938 13.37609375 -64.81921875 12.7521875 -64.2109375 12.109375 C-60.01083149 8.00178234 -55.25274524 5.33873176 -50.0625 2.6875 C-49.07817993 2.18065674 -49.07817993 2.18065674 -48.07397461 1.66357422 C-34.34810997 -5.03403731 -14.07598898 -6.07039756 0 0 Z M-23 1 C-23.33 4.96 -23.66 8.92 -24 13 C-24.99 13 -25.98 13 -27 13 C-27.12375 12.05125 -27.2475 11.1025 -27.375 10.125 C-27.71687177 6.91332809 -27.71687177 6.91332809 -30 5 C-30.66 7.31 -31.32 9.62 -32 12 C-32.99 10.02 -33.98 8.04 -35 6 C-35.33 6 -35.66 6 -36 6 C-36 8.97 -36 11.94 -36 15 C-36.99 15 -37.98 15 -39 15 C-39.268125 14.278125 -39.53625 13.55625 -39.8125 12.8125 C-40.98982498 10.02409874 -42.39145884 7.55904276 -44 5 C-45.12758089 8.38274266 -44.81750262 9.76778223 -44.0625 13.1875 C-43.77052734 14.53908203 -43.77052734 14.53908203 -43.47265625 15.91796875 C-43.31667969 16.60503906 -43.16070312 17.29210937 -43 18 C-43.78375 17.195625 -44.5675 16.39125 -45.375 15.5625 C-47.71982856 13.01309583 -47.71982856 13.01309583 -50 12 C-49.67 14.64 -49.34 17.28 -49 20 C-50.98 18.68 -52.96 17.36 -55 16 C-54.34 18.64 -53.68 21.28 -53 24 C-56.77727089 22.18690997 -60.37269822 20.0926741 -64 18 C-62.18690997 21.77727089 -60.0926741 25.37269822 -58 29 C-60.97 28.01 -63.94 27.02 -67 26 C-65.35 28.31 -63.7 30.62 -62 33 C-64.64 32.34 -67.28 31.68 -70 31 C-68.86695008 34.39914975 -67.87481525 35.05254451 -65 37 C-65.33 37.66 -65.66 38.32 -66 39 C-69.63 38.34 -73.26 37.68 -77 37 C-74.14889194 40.05176177 -74.14889194 40.05176177 -70.875 42.0625 C-68 44 -68 44 -67 46 C-69.97 46 -72.94 46 -76 46 C-74.03617993 47.50559539 -72.21736634 48.89131683 -70 50 C-72.31 50.66 -74.62 51.32 -77 52 C-75.1149756 54.15279873 -75.1149756 54.15279873 -72.4375 55 C-70 56 -70 56 -69 58 C-69.78246094 58.04898438 -70.56492187 58.09796875 -71.37109375 58.1484375 C-72.38300781 58.22320312 -73.39492187 58.29796875 -74.4375 58.375 C-75.95150391 58.47941406 -75.95150391 58.47941406 -77.49609375 58.5859375 C-78.32238281 58.72257812 -79.14867187 58.85921875 -80 59 C-80.33 59.66 -80.66 60.32 -81 61 C-77.04 61.66 -73.08 62.32 -69 63 C-69 63.66 -69 64.32 -69 65 C-69.94875 65.12375 -70.8975 65.2475 -71.875 65.375 C-75.08667191 65.71687177 -75.08667191 65.71687177 -77 68 C-74.69 68.66 -72.38 69.32 -70 70 C-71.98 70.99 -73.96 71.98 -76 73 C-76 73.33 -76 73.66 -76 74 C-73.03 74 -70.06 74 -67 74 C-67 74.99 -67 75.98 -67 77 C-67.721875 77.2475 -68.44375 77.495 -69.1875 77.75 C-72.24713266 79.10983674 -74.4673738 80.82917754 -77 83 C-72.65535464 82.39174965 -68.32448133 81.73832608 -64 81 C-66.22905376 83.84396515 -68.43855205 86.43855205 -71 89 C-67.7 88.01 -64.4 87.02 -61 86 C-62.98 88.64 -64.96 91.28 -67 94 C-63.7 93.01 -60.4 92.02 -57 91 C-59.31 94.63 -61.62 98.26 -64 102 C-60.17352685 100.16220988 -60.17352685 100.16220988 -57.375 98.375 C-55 97 -55 97 -53 97 C-53.515625 97.94875 -54.03125 98.8975 -54.5625 99.875 C-55.036875 100.90625 -55.51125 101.9375 -56 103 C-55.505 103.99 -55.505 103.99 -55 105 C-53.02 103.68 -51.04 102.36 -49 101 C-49.66 103.64 -50.32 106.28 -51 109 C-48.36 107.02 -45.72 105.04 -43 103 C-43.66 106.96 -44.32 110.92 -45 115 C-41.85132448 111.85132448 -40.18493836 109.67466905 -38 106 C-37.34 105.67 -36.68 105.34 -36 105 C-36 107.97 -36 110.94 -36 114 C-34.68 112.35 -33.36 110.7 -32 109 C-31.34 110.98 -30.68 112.96 -30 115 C-27.84720127 113.1149756 -27.84720127 113.1149756 -27 110.4375 C-26 108 -26 108 -24 107 C-23.95101562 107.85464844 -23.90203125 108.70929688 -23.8515625 109.58984375 C-23.77679688 110.69457031 -23.70203125 111.79929687 -23.625 112.9375 C-23.55539063 114.03964844 -23.48578125 115.14179688 -23.4140625 116.27734375 C-23.20910156 117.62505859 -23.20910156 117.62505859 -23 119 C-22.01 119.495 -22.01 119.495 -21 120 C-20.81824219 118.71802734 -20.81824219 118.71802734 -20.6328125 117.41015625 C-20.46523437 116.30542969 -20.29765625 115.20070313 -20.125 114.0625 C-19.96257812 112.96035156 -19.80015625 111.85820312 -19.6328125 110.72265625 C-19.42398438 109.82417969 -19.21515625 108.92570312 -19 108 C-18.34 107.67 -17.68 107.34 -17 107 C-16.01 111.455 -16.01 111.455 -15 116 C-14.67 116 -14.34 116 -14 116 C-13.34 113.36 -12.68 110.72 -12 108 C-11.01 109.98 -10.02 111.96 -9 114 C-8.67 114 -8.34 114 -8 114 C-8 111.03 -8 108.06 -8 105 C-7.01 105 -6.02 105 -5 105 C-4.5978125 106.0828125 -4.5978125 106.0828125 -4.1875 107.1875 C-3.01017502 109.97590126 -1.60854116 112.44095724 0 115 C1.12758089 111.61725734 0.81750262 110.23221777 0.0625 106.8125 C-0.13214844 105.91144531 -0.32679688 105.01039063 -0.52734375 104.08203125 C-0.68332031 103.39496094 -0.83929688 102.70789063 -1 102 C-0.21625 102.804375 0.5675 103.60875 1.375 104.4375 C3.71982856 106.98690417 3.71982856 106.98690417 6 108 C5.505 104.04 5.505 104.04 5 100 C5.45375 100.495 5.9075 100.99 6.375 101.5 C7.87635519 103.22609337 7.87635519 103.22609337 10 103 C10 103.66 10 104.32 10 105 C10.66 104.67 11.32 104.34 12 104 C11.01 101.36 10.02 98.72 9 96 C10.72526042 97.00911458 12.45052083 98.01822917 14.17578125 99.02734375 C16.13819555 100.13901247 16.13819555 100.13901247 19 101 C18.731875 100.46375 18.46375 99.9275 18.1875 99.375 C16.79166667 96.58333333 15.39583333 93.79166667 14 91 C16.97 91.99 19.94 92.98 23 94 C21.35 91.69 19.7 89.38 18 87 C20.64 87.66 23.28 88.32 26 89 C24.02 86.36 22.04 83.72 20 81 C22.21354167 81.55338542 24.42708333 82.10677083 26.640625 82.66015625 C29.10394822 83.01497267 30.65604132 82.76877544 33 82 C32.36191406 81.59007812 31.72382813 81.18015625 31.06640625 80.7578125 C30.24011719 80.21898437 29.41382813 79.68015625 28.5625 79.125 C27.73878906 78.59132813 26.91507812 78.05765625 26.06640625 77.5078125 C24 76 24 76 23 74 C25.64 74 28.28 74 31 74 C29.36587557 72.29159719 28.13093906 71.06546953 26 70 C28.64 69.67 31.28 69.34 34 69 C33.14092555 66.76778305 33.14092555 66.76778305 30.625 65.875 C27.98682384 64.84188612 27.98682384 64.84188612 25 65 C25 64.01 25 63.02 25 62 C29.29 61.67 33.58 61.34 38 61 C37.67 60.34 37.34 59.68 37 59 C34.1840151 58.53101037 34.1840151 58.53101037 30.9375 58.375 C29.83277344 58.30023438 28.72804688 58.22546875 27.58984375 58.1484375 C26.73519531 58.09945312 25.88054687 58.05046875 25 58 C26.305239 55.38952199 27.35826574 55.31933577 30.0625 54.375 C31.16271484 53.98441406 31.16271484 53.98441406 32.28515625 53.5859375 C32.85105469 53.39257812 33.41695313 53.19921875 34 53 C34 52.67 34 52.34 34 52 C31.36 51.34 28.72 50.68 26 50 C27.98 49.01 29.96 48.02 32 47 C32 46.67 32 46.34 32 46 C29.03 46 26.06 46 23 46 C26.02272532 42.74475735 29.25718301 40.38179263 33 38 C30.18515955 36.59257978 28.43063887 37.33347836 25.375 37.9375 C24.37210937 38.13214844 23.36921875 38.32679687 22.3359375 38.52734375 C21.56507813 38.68332031 20.79421875 38.83929688 20 39 C20 38.34 20 37.68 20 37 C20.61875 36.731875 21.2375 36.46375 21.875 36.1875 C24.2995233 35.04443152 24.2995233 35.04443152 26 32 C22.04 32.495 22.04 32.495 18 33 C19.65 31.35 21.3 29.7 23 28 C22.505 27.01 22.505 27.01 22 26 C19.36 26.99 16.72 27.98 14 29 C15.98 26.03 17.96 23.06 20 20 C19.505 19.01 19.505 19.01 19 18 C16.03 19.98 13.06 21.96 10 24 C10 20.61976483 10.87455622 18.16531063 12 15 C8.535 17.475 8.535 17.475 5 20 C5.66 17.36 6.32 14.72 7 12 C4.36 13.98 1.72 15.96 -1 18 C-0.34 13.71 0.32 9.42 1 5 C-2.04367695 8.80459619 -3.52334445 10.69308797 -5 15 C-5.99 15 -6.98 15 -8 15 C-8 12.36 -8 9.72 -8 7 C-9.32 8.65 -10.64 10.3 -12 12 C-12.495 8.535 -12.495 8.535 -13 5 C-13.66 5 -14.32 5 -15 5 C-16.25664978 7.90600261 -17 9.79604584 -17 13 C-17.99 13 -18.98 13 -20 13 C-19.979375 11.948125 -19.95875 10.89625 -19.9375 9.8125 C-19.98896802 6.67295096 -20.26517187 4.03116604 -21 1 C-21.66 1 -22.32 1 -23 1 Z " fill="#060606" transform="translate(134,52)"/>
<path d="M0 0 C8.3945244 7.04299096 12.39797644 16.99486609 13.625 27.6875 C13.13815552 37.70838224 9.21807831 46.80155231 2.1875 53.875 C-6.07103736 61.27191831 -14.78028203 64.29714003 -25.84375 64.1484375 C-34.82422502 63.32128849 -42.46526928 59.17273964 -48.8125 52.875 C-54.58288701 45.74093291 -58.38080962 38.33056065 -58.1875 29 C-58.17444824 27.9483667 -58.17444824 27.9483667 -58.16113281 26.87548828 C-57.88983127 17.26652119 -54.94841608 10.60176123 -48.625 3.375 C-34.30677603 -9.35231019 -16.01304175 -11.28919444 0 0 Z " fill="#F8F8F8" transform="translate(134.8125,84.125)"/>
<path d="M0 0 C1.04583252 0.00572021 2.09166504 0.01144043 3.16918945 0.01733398 C21.81204023 0.44315316 38.22733408 8.21248616 51.3125 21.5 C52.02148438 22.21027344 52.73046875 22.92054687 53.4609375 23.65234375 C67.45576982 38.4782868 72.07173154 55.1780089 71.83398438 75.05395508 C71.19945664 94.78632545 62.96674538 111.10514959 48.85546875 124.90234375 C43.74504684 129.3844979 38.33980879 132.79958015 32.3125 135.875 C31.37071899 136.35779419 31.37071899 136.35779419 30.40991211 136.8503418 C20.68576378 141.5502018 11.24036192 143.03806964 0.5 142.9375 C-0.6449292 142.92920166 -1.7898584 142.92090332 -2.96948242 142.91235352 C-22.11942298 142.5300893 -37.97008097 134.92923796 -51.6875 121.5 C-66.98197368 104.11135992 -72.26752334 85.04956345 -70.95800781 62.33056641 C-69.0843586 42.72489047 -57.41668417 26.7152467 -42.9375 14.1875 C-30.55447854 4.73781749 -15.48238593 -0.09956113 0 0 Z M-45.6875 27.5 C-46.39648438 28.17546875 -47.10546875 28.8509375 -47.8359375 29.546875 C-59.30413639 41.23477118 -64.2248134 58.26739657 -64.18212891 74.33422852 C-63.52592669 91.76956312 -54.52531382 108.46329919 -41.9375 120.1875 C-27.88069677 131.80559858 -10.7819463 137.01492324 7.3125 135.5 C25.12805209 133.00993004 39.87182564 124.64138408 51.4375 110.9921875 C61.77547002 97.13396045 65.57364662 80.50843682 64.3125 63.5 C63.64381369 59.36189774 62.63026902 55.47602723 61.3125 51.5 C61.0340625 50.63890625 60.755625 49.7778125 60.46875 48.890625 C58.1077979 42.33694762 54.5634082 36.98475232 50.3125 31.5 C49.7659375 30.78714844 49.219375 30.07429688 48.65625 29.33984375 C39.52071052 18.15742632 25.54610135 10.66416502 11.3125 8.5 C-11.24072256 6.73107806 -29.36845927 11.01272173 -45.6875 27.5 Z " fill="#F6F6F6" transform="translate(111.6875,40.5)"/>
<path d="M0 0 C0.33 0 0.66 0 1 0 C1 34.32 1 68.64 1 104 C-33.32 104 -67.64 104 -103 104 C-103 103.67 -103 103.34 -103 103 C-101.83726563 102.85304688 -100.67453125 102.70609375 -99.4765625 102.5546875 C-77.13327354 99.51750702 -56.043701 92.24807792 -39 77 C-38.16082031 76.29101562 -37.32164062 75.58203125 -36.45703125 74.8515625 C-14.18763712 55.64800024 -3.35199253 28.62425196 0 0 Z " fill="#FCFCFC" transform="translate(223,120)"/>
<path d="M0 0 C24.16559682 15.89518264 43.83302596 39.42268675 50.875 68 C57.36120882 99.53727517 52.9960969 130.5067555 35.875 158 C33.41093752 161.54504008 30.75082112 164.78420778 27.875 168 C27.18921875 168.81597656 26.5034375 169.63195312 25.796875 170.47265625 C6.66685962 192.73366336 -20.98166856 205.56387013 -50.125 208 C-79.87404043 209.70620473 -107.04150308 200.91020934 -130.125 182 C-130.97578125 181.31421875 -131.8265625 180.6284375 -132.703125 179.921875 C-152.80945898 162.85045936 -165.98678927 137.11387023 -169.125 111 C-169.43868258 105.97579783 -169.50708903 100.97071476 -169.5 95.9375 C-169.49912384 95.2543573 -169.49824768 94.5712146 -169.49734497 93.86737061 C-169.45079581 82.8440786 -168.691813 72.49815744 -165.125 62 C-164.88894043 61.29810547 -164.65288086 60.59621094 -164.40966797 59.87304688 C-158.60958697 43.25437507 -149.44387022 29.45318812 -137.125 17 C-136.54492188 16.35933594 -135.96484375 15.71867187 -135.3671875 15.05859375 C-120.35426481 -1.19911901 -99.18585875 -9.24911142 -78.125 -14 C-77.21161865 -14.26828613 -77.21161865 -14.26828613 -76.27978516 -14.54199219 C-50.89804739 -19.93697746 -21.86126414 -13.03960108 0 0 Z M-140.46484375 23.5546875 C-162.44354376 49.47828238 -168.92633125 78.55856953 -166.88671875 111.89453125 C-163.40001905 139.33027942 -147.38115674 165.60106165 -125.87890625 182.625 C-100.25167701 202.09477491 -69.76559133 208.4455695 -38 204.3125 C-10.11799751 198.91478256 15.14826833 182.60544161 31.75 159.625 C44.17291012 140.59808934 51.28048805 120.48174336 51.125 97.625 C51.13273438 96.49578125 51.14046875 95.3665625 51.1484375 94.203125 C51.08582506 66.84149072 40.91932952 42.39256418 22.875 22 C22.14796875 21.17242187 21.4209375 20.34484375 20.671875 19.4921875 C6.83411041 4.78315625 -11.7122784 -5.07281636 -31.125 -10 C-32.98511719 -10.47953125 -32.98511719 -10.47953125 -34.8828125 -10.96875 C-73.98799939 -19.6409475 -113.63055395 -5.74351872 -140.46484375 23.5546875 Z " fill="#0F0F0F" transform="translate(170.125,16)"/>
<path d="M0 0 C21.80507929 17.56143456 36.20833916 42.52173776 39.42578125 70.4765625 C42.06810409 97.3142729 34.03714608 125.14023782 17.25 146.25 C-1.7612956 168.37577406 -26.94631926 183.16644822 -56.375 185.5 C-83.99042874 187.09101236 -111.01812166 178.80691738 -131.9675293 160.49047852 C-133.44483533 159.1693755 -134.91037873 157.83515199 -136.375 156.5 C-137.04015625 155.91734375 -137.7053125 155.3346875 -138.390625 154.734375 C-154.94076904 139.4216249 -165.89893532 114.94164749 -167.59594727 92.58984375 C-168.39543103 71.37891154 -166.12160758 52.47578961 -156.375 33.5 C-155.85164063 32.45585938 -155.32828125 31.41171875 -154.7890625 30.3359375 C-144.33929606 11.01661321 -127.75858593 -2.80564916 -108.375 -12.5 C-107.36824219 -13.00402344 -106.36148438 -13.50804687 -105.32421875 -14.02734375 C-71.29532056 -29.51213975 -29.0473996 -22.77992692 0 0 Z M-143.92578125 18.4296875 C-161.92844996 40.99762627 -167.03975096 67.77435453 -165.13671875 96.0390625 C-162.49605989 114.97712097 -153.85777199 133.17766161 -141.375 147.5 C-140.89675781 148.10972656 -140.41851562 148.71945313 -139.92578125 149.34765625 C-125.51098494 167.47973528 -101.00014073 179.16706407 -78.375 182.5 C-63.05890572 183.4092089 -48.00409068 183.40181431 -33.375 178.5 C-32.73852539 178.29101074 -32.10205078 178.08202148 -31.44628906 177.86669922 C-4.29978609 168.73808928 15.18384518 148.68058548 28.08984375 123.66015625 C38.97347226 101.13203766 39.77871364 73.83472974 32.5 50.0625 C23.41435765 24.45267771 5.09465292 2.32730759 -19.53125 -9.56640625 C-64.50348175 -30.28353712 -111.6383026 -17.9634203 -143.92578125 18.4296875 Z " fill="#101010" transform="translate(176.375,30.5)"/>
<path d="M0 0 C8.3945244 7.04299096 12.39797644 16.99486609 13.625 27.6875 C13.13815552 37.70838224 9.21807831 46.80155231 2.1875 53.875 C-6.07103736 61.27191831 -14.78028203 64.29714003 -25.84375 64.1484375 C-34.82422502 63.32128849 -42.46526928 59.17273964 -48.8125 52.875 C-54.58288701 45.74093291 -58.38080962 38.33056065 -58.1875 29 C-58.17444824 27.9483667 -58.17444824 27.9483667 -58.16113281 26.87548828 C-57.88983127 17.26652119 -54.94841608 10.60176123 -48.625 3.375 C-34.30677603 -9.35231019 -16.01304175 -11.28919444 0 0 Z M-35.8125 -3.125 C-38.43701617 -0.50048383 -38.3957868 1.3627828 -38.9375 5 C-39.22625 6.93875 -39.515 8.8775 -39.8125 10.875 C-44.1025 11.865 -48.3925 12.855 -52.8125 13.875 C-53.1425 15.195 -53.4725 16.515 -53.8125 17.875 C-52.5816823 19.88582482 -52.5816823 19.88582482 -50.8125 21.75 C-47.83513616 25.49773071 -47.83513616 25.49773071 -47.625 29 C-48.69687544 31.59506685 -49.57849465 32.93505132 -51.375 35 C-54.2436235 37.75530105 -54.2436235 37.75530105 -53.8125 41.875 C-52.89726563 42.05675781 -51.98203125 42.23851562 -51.0390625 42.42578125 C-49.25628906 42.80283203 -49.25628906 42.80283203 -47.4375 43.1875 C-46.25414063 43.43113281 -45.07078125 43.67476562 -43.8515625 43.92578125 C-40.8125 44.875 -40.8125 44.875 -38.8125 47.875 C-38.43359375 50.06640625 -38.43359375 50.06640625 -38.25 52.4375 C-37.99789562 55.78157232 -37.99789562 55.78157232 -36.8125 58.875 C-33.84019356 59.1282922 -32.26307044 59.16447263 -29.71484375 57.52734375 C-28.40217959 56.38169849 -27.08968025 55.23586434 -25.77734375 54.08984375 C-23.8125 52.875 -23.8125 52.875 -21.78515625 53.03125 C-19.0175294 54.21502703 -16.9277431 55.94390724 -14.59375 57.81640625 C-12.58474641 59.21559144 -12.58474641 59.21559144 -8.8125 58.875 C-8.60753906 57.94816406 -8.40257812 57.02132812 -8.19140625 56.06640625 C-7.92199219 54.86886719 -7.65257812 53.67132813 -7.375 52.4375 C-7.10816406 51.24253906 -6.84132812 50.04757813 -6.56640625 48.81640625 C-5.8125 45.875 -5.8125 45.875 -4.8125 44.875 C-3.00731074 44.50411039 -1.19288572 44.17758696 0.625 43.875 C4.53432538 43.26944481 4.53432538 43.26944481 8.1875 41.875 C7.7266335 36.92068513 6.35234423 34.63325253 3.1875 30.875 C2.375 29.0078125 2.375 29.0078125 2.1875 26.875 C3.5688691 24.42306984 5.22595843 22.32486669 6.9375 20.09375 C8.41768192 17.97255145 8.41768192 17.97255145 7.9375 15.65625 C7.32380565 13.88554002 7.32380565 13.88554002 6.1875 12.875 C3.38219517 12.4202074 0.57146673 12.0389904 -2.24609375 11.66796875 C-4.8125 10.875 -4.8125 10.875 -6.12890625 9.05859375 C-6.80388575 6.90251638 -7.14148074 4.99890325 -7.3125 2.75 C-7.41236718 -1.13206948 -7.41236718 -1.13206948 -9.8125 -3.125 C-12.99632503 -2.77341196 -14.82513017 -1.50485774 -17.25 0.5 C-20.47898463 2.85832423 -20.47898463 2.85832423 -23.3125 3 C-26.26645936 1.67071829 -28.63877631 -0.04960529 -31.1640625 -2.06640625 C-32.9067066 -3.39517721 -32.9067066 -3.39517721 -35.8125 -3.125 Z " fill="#0C0C0C" transform="translate(134.8125,84.125)"/>
<path d="M0 0 C0.78785889 0.00491455 1.57571777 0.0098291 2.38745117 0.01489258 C9.01316219 0.14687885 14.96054654 1.17305477 21.25 3.3125 C22.31734375 3.66441406 23.3846875 4.01632813 24.484375 4.37890625 C43.97968186 11.31209637 59.15962592 25.01203962 68.125 43.6875 C76.21389489 61.62592101 76.55539084 80.83572755 70.25 99.3125 C69.97285156 100.20066406 69.69570312 101.08882813 69.41015625 102.00390625 C63.49394736 118.98915113 49.09491445 133.35903512 33.25 141.3125 C15.0141048 149.20396261 -5.85948996 151.95255384 -24.78076172 144.51416016 C-34.11800068 140.66278393 -42.29387289 136.23099366 -49.75 129.3125 C-50.35714844 128.79558594 -50.96429688 128.27867187 -51.58984375 127.74609375 C-65.80058947 114.88875238 -72.33965632 95.76832118 -74.03515625 77.1875 C-74.71858871 55.31766125 -65.78090061 36.44836654 -51.125 20.62890625 C-41.69618433 11.43270939 -29.4329045 5.50267843 -16.75 2.3125 C-15.5125 1.96316406 -14.275 1.61382812 -13 1.25390625 C-8.64153976 0.17396082 -4.4767076 -0.03341911 0 0 Z M-57.0625 31.0625 C-66.49345995 43.4209871 -71.34978118 58.48278422 -71.25 73.9375 C-71.24427979 74.9800293 -71.23855957 76.02255859 -71.23266602 77.09667969 C-70.76934455 97.39546383 -62.01210323 114.32908093 -47.515625 128.49609375 C-42.68620081 132.6529639 -37.45778294 135.73406613 -31.8125 138.625 C-31.18077881 138.95072998 -30.54905762 139.27645996 -29.89819336 139.61206055 C-20.15982587 144.35962274 -10.71060365 145.85087622 0.0625 145.75 C1.2074292 145.74170166 2.3523584 145.73340332 3.53198242 145.72485352 C23.39248157 145.32840539 39.77746722 137.04619613 53.65234375 122.85546875 C58.1344979 117.74504684 61.54958015 112.33980879 64.625 106.3125 C64.94686279 105.684646 65.26872559 105.05679199 65.6003418 104.40991211 C70.26780117 94.75280164 71.81259218 85.29419283 71.75 74.625 C71.74427979 73.48595215 71.73855957 72.3469043 71.73266602 71.17333984 C71.33026789 52.06688048 63.70697131 36.81524333 50.25 23.3125 C49.57453125 22.61382812 48.8990625 21.91515625 48.203125 21.1953125 C34.13524282 7.6034113 16.19502717 2.65547865 -2.92333984 2.84375 C-25.3927745 3.52239267 -42.65380926 14.44558079 -57.0625 31.0625 Z " fill="#121212" transform="translate(111.75,37.6875)"/>
<path d="M0 0 C4.53802794 2.43599768 7.64011638 5.70210775 9.9296875 10.28125 C10.436984 15.83656248 10.69229172 20.69955236 8.2421875 25.78125 C1.52380923 33.04436164 1.52380923 33.04436164 -3.6796875 33.51953125 C-14.21912593 33.76859758 -14.21912593 33.76859758 -19.0703125 29.28125 C-23.58913861 24.27390215 -24.42828232 20.43028686 -24.3515625 13.8515625 C-23.78358165 8.66084865 -21.32309882 5.44236903 -17.5078125 1.90625 C-12.41597727 -1.48830682 -5.79251862 -2.0109876 0 0 Z " fill="#D3D3D3" transform="translate(119.0703125,95.71875)"/>
<path d="M0 0 C7.28875927 6.11525599 11.42696469 14.60585685 13.1875 23.875 C13.38671326 26.60200814 13.33963719 29.13653049 13.1875 31.875 C12.5275 30.885 11.8675 29.895 11.1875 28.875 C10.1975 29.865 10.1975 29.865 9.1875 30.875 C6.6875 30.8125 6.6875 30.8125 4.1875 29.875 C2.5625 27.75 2.5625 27.75 2.1875 24.875 C3.33792835 22.93446614 4.6270197 21.31021663 6.12109375 19.62109375 C7.43387178 17.89333314 7.43387178 17.89333314 6.84765625 15.66015625 C6.52087891 14.77650391 6.52087891 14.77650391 6.1875 13.875 C5.42824219 13.78863281 4.66898438 13.70226562 3.88671875 13.61328125 C-4.22035498 12.46714502 -4.22035498 12.46714502 -6.9375 9.75 C-8.05060875 6.09264269 -8.48947583 2.68668516 -8.8125 -1.125 C-10.60731542 -1.90716687 -10.60731542 -1.90716687 -12.8125 -2.125 C-14.8578233 -0.89666059 -14.8578233 -0.89666059 -16.75 0.875 C-20.51247416 3.85304689 -20.51247416 3.85304689 -23.375 4.0625 C-26.25656333 2.65866145 -28.61118135 0.88857356 -31.06640625 -1.1640625 C-33.09227954 -2.53688631 -33.09227954 -2.53688631 -36.8125 -1.125 C-37.4725 2.835 -38.1325 6.795 -38.8125 10.875 C-42.17912568 12.05331899 -45.53827497 13.08646594 -49 13.9375 C-52.70353281 14.79393009 -52.70353281 14.79393009 -55.8125 15.875 C-53.77718292 7.73373167 -49.27168738 2.55673988 -42.375 -2 C-28.6717398 -10.06398288 -12.98353319 -9.1533909 0 0 Z " fill="#0C0C0C" transform="translate(134.8125,84.125)"/>
<path d="M0 0 C0.66022156 0.00141495 1.32044312 0.0028299 2.00067139 0.00428772 C4.09945294 0.0098638 6.19812595 0.02241178 8.296875 0.03515625 C9.72395679 0.04017435 11.15104025 0.04473671 12.578125 0.04882812 C16.06774332 0.05982537 19.55729856 0.07707345 23.046875 0.09765625 C23.046875 0.75765625 23.046875 1.41765625 23.046875 2.09765625 C21.99113281 2.11953003 21.99113281 2.11953003 20.9140625 2.1418457 C-15.31582554 2.9784203 -44.76122779 10.95015208 -70.953125 37.09765625 C-89.29497778 57.30076715 -99.15679034 83.08913306 -99.140625 110.22265625 C-99.14126953 111.33543945 -99.14191406 112.44822266 -99.14257812 113.59472656 C-99.09852128 120.44156126 -98.74259826 126.92221975 -97.390625 133.64453125 C-96.93866711 136.17872373 -96.87921016 138.52911548 -96.953125 141.09765625 C-97.613125 141.09765625 -98.273125 141.09765625 -98.953125 141.09765625 C-101.34085597 130.87816768 -102.47469446 121.31965549 -102.390625 110.78515625 C-102.38725128 110.11200378 -102.38387756 109.43885132 -102.38040161 108.74530029 C-102.30110717 97.77737149 -101.49350777 87.51802191 -97.953125 77.09765625 C-97.71706543 76.39576172 -97.48100586 75.69386719 -97.23779297 74.97070312 C-91.43771197 58.35203132 -82.27199522 44.55084437 -69.953125 32.09765625 C-69.37304688 31.45699219 -68.79296875 30.81632812 -68.1953125 30.15625 C-53.18238981 13.89853724 -32.01398375 5.84854483 -10.953125 1.09765625 C-10.35653076 0.91662354 -9.75993652 0.73559082 -9.14526367 0.54907227 C-6.07568863 -0.08302978 -3.1322898 -0.01327241 0 0 Z " fill="#070707" transform="translate(102.953125,0.90234375)"/>
<path d="M0 0 C1.60101563 0.52787109 1.60101563 0.52787109 3.234375 1.06640625 C22.74005295 8.00328467 37.89311926 21.70125599 46.875 40.375 C50.58803851 48.46829627 53 57.04463327 53 66 C52.34 66 51.68 66 51 66 C51 69.96 51 73.92 51 78 C50.67 78 50.34 78 50 78 C49.98582031 76.741875 49.97164063 75.48375 49.95703125 74.1875 C49.4600405 52.55778302 43.6010024 35.65564689 28 20 C27.39800781 19.37480469 26.79601562 18.74960937 26.17578125 18.10546875 C12.41101607 4.87815644 -5.64571288 0.38035928 -24.16455078 0.5246582 C-36.59397909 0.8803166 -46.89269148 4.46901372 -58 10 C-57.890625 8.19140625 -57.890625 8.19140625 -57 6 C-40.17234374 -3.94582574 -18.46045359 -6.27958052 0 0 Z " fill="#121212" transform="translate(133,41)"/>
<path d="M0 0 C0.33 0 0.66 0 1 0 C0.9113142 20.13167677 -9.82242405 41.26460984 -23 56 C-23.68578125 56.81597656 -24.3715625 57.63195312 -25.078125 58.47265625 C-41.10103822 77.11802469 -62.96794331 89.12274586 -87 94 C-88.99906355 94.06119582 -91.00170223 94.08249853 -93 94 C-92.505 93.01 -92.505 93.01 -92 92 C-89.19128654 91.21828687 -86.40084441 90.53030007 -83.5625 89.875 C-63.26334227 84.82423438 -47.11558675 75.44437952 -32 61 C-31.38769531 60.45085937 -30.77539062 59.90171875 -30.14453125 59.3359375 C-14.12669097 44.45437422 -5.33290028 21.94235133 -1 1 C-0.67 0.67 -0.34 0.34 0 0 Z " fill="#121212" transform="translate(221,128)"/>
<path d="M0 0 C7.61950679 1.85841629 12.13166841 6.26668591 16.25 12.75 C20.4934973 20.30660215 22.48068392 27.34768945 22 36 C21.34 35.01 20.68 34.02 20 33 C19.34 33.66 18.68 34.32 18 35 C15.5 34.9375 15.5 34.9375 13 34 C11.375 31.875 11.375 31.875 11 29 C12.15042835 27.05946614 13.4395197 25.43521663 14.93359375 23.74609375 C16.24637178 22.01833314 16.24637178 22.01833314 15.66015625 19.78515625 C15.44230469 19.19605469 15.22445312 18.60695313 15 18 C14.24074219 17.91363281 13.48148438 17.82726562 12.69921875 17.73828125 C4.65996534 16.6017331 4.65996534 16.6017331 1.875 14.0625 C0.55293248 9.43526368 0.24342517 4.79295771 0 0 Z " fill="#0D0D0D" transform="translate(126,80)"/>
<path d="M0 0 C0.66 1.32 1.32 2.64 2 4 C5.60992379 3.34414811 5.60992379 3.34414811 9 2 C9.52464851 11.61855596 7.1333894 18.47137348 0.96484375 25.91796875 C-3.18318982 30.31339995 -7.70148145 34.60634259 -14 35 C-14.33 34.34 -14.66 33.68 -15 33 C-14.01 33 -13.02 33 -12 33 C-11.87882812 32.08476562 -11.75765625 31.16953125 -11.6328125 30.2265625 C-11.46523437 29.03804687 -11.29765625 27.84953125 -11.125 26.625 C-10.96257812 25.44164062 -10.80015625 24.25828125 -10.6328125 23.0390625 C-10 20 -10 20 -8 18 C-5.80708918 17.54337847 -3.59414111 17.179588 -1.375 16.875 C-0.18648437 16.70742187 1.00203125 16.53984375 2.2265625 16.3671875 C3.14179688 16.24601562 4.05703125 16.12484375 5 16 C3.08927172 11.22317931 0.88948377 7.28440696 -2 3 C-2 2.34 -2 1.68 -2 1 C-1.34 0.67 -0.68 0.34 0 0 Z " fill="#0A0A0A" transform="translate(138,110)"/>
<path d="M0 0 C0.66 0 1.32 0 2 0 C2.55517949 10.87226493 1.40611727 19.59176013 -2 30 C-2.27714844 30.89332031 -2.55429688 31.78664062 -2.83984375 32.70703125 C-8.83996516 49.82258496 -23.14378286 63.79836438 -39 72 C-45.07413694 74.77267216 -51.23184287 77.39071298 -58 77 C-56.38651969 73.77303938 -52.93442449 73.42523499 -49.6875 72.3125 C-30.18458581 65.26772937 -16.10581944 53.14089137 -7.125 34.375 C-2.44523367 23.16607515 -1.12110848 11.98926598 0 0 Z " fill="#0C0C0C" transform="translate(184,107)"/>
<path d="M0 0 C4.53802794 2.43599768 7.64011638 5.70210775 9.9296875 10.28125 C10.436984 15.83656248 10.69229172 20.69955236 8.2421875 25.78125 C1.52380923 33.04436164 1.52380923 33.04436164 -3.6796875 33.51953125 C-14.21912593 33.76859758 -14.21912593 33.76859758 -19.0703125 29.28125 C-23.58913861 24.27390215 -24.42828232 20.43028686 -24.3515625 13.8515625 C-23.78358165 8.66084865 -21.32309882 5.44236903 -17.5078125 1.90625 C-12.41597727 -1.48830682 -5.79251862 -2.0109876 0 0 Z M-19.3828125 7.90625 C-22.25985683 11.9554235 -22.83459312 15.37783163 -22.0703125 20.28125 C-20.34860998 24.30331853 -18.08270769 27.38134316 -14.8203125 30.28125 C-9.67830889 32.1510695 -4.98477441 31.90713178 0.1796875 30.21875 C4.3440193 27.28478896 7.33853626 24.19074219 8.37890625 19.0703125 C8.64600765 13.67302224 7.52621183 9.3764075 3.9296875 5.28125 C0.58124374 2.41599939 -2.73104898 1.04215759 -7.1328125 0.78125 C-12.80764394 1.50186352 -15.6550247 3.67470709 -19.3828125 7.90625 Z " fill="#0D0D0D" transform="translate(119.0703125,95.71875)"/>
<path d="M0 0 C0 3.79676808 -0.9647453 4.38697275 -3.4375 7.1875 C-18.51706636 25.6299431 -24.96294393 47.64313113 -25.625 71.1875 C-25.68300781 72.90163086 -25.68300781 72.90163086 -25.7421875 74.65039062 C-25.83534411 77.43344445 -25.92115849 80.21651022 -26 83 C-26.66 82.67 -27.32 82.34 -28 82 C-28.94538497 53.91479425 -24.86050904 27.14541179 -6 5 C-4.0751516 3.21201008 -2.05939835 1.63815778 0 0 Z " fill="#121212" transform="translate(37,42)"/>
<path d="M0 0 C1 3 1 3 0.8125 6.75 C0.75922194 11.57166461 2.17627262 14.10783524 5 18 C8.65560477 21.23782137 12.08419956 21.4686637 16.79296875 21.28125 C21.72792228 20.65237097 24.74769647 18.50761004 27.875 14.8125 C28.57625 13.884375 29.2775 12.95625 30 12 C30.495 13.485 30.495 13.485 31 15 C29.92578125 16.75390625 29.92578125 16.75390625 28.3125 18.5625 C27.79300781 19.16191406 27.27351563 19.76132813 26.73828125 20.37890625 C22.24732832 24.56709831 17.83237563 24.42440466 11.9140625 24.31640625 C6.6638498 23.74634294 4.10199015 21.22112422 0.6875 17.4375 C-1.76717251 13.89186192 -2.15647101 11.15123673 -2.1875 6.9375 C-2.20167969 6.05964844 -2.21585937 5.18179688 -2.23046875 4.27734375 C-2 2 -2 2 0 0 Z " fill="#0A0A0A" transform="translate(97,105)"/>
<path d="M0 0 C3.65396407 0.61178756 5.86042559 2.1664456 8.75 4.4375 C9.54921875 5.05496094 10.3484375 5.67242187 11.171875 6.30859375 C11.77515625 6.86675781 12.3784375 7.42492187 13 8 C13 8.66 13 9.32 13 10 C6.92972642 12.1583195 1.40629424 12.20852314 -5 12 C-5 11.67 -5 11.34 -5 11 C-3.35 11 -1.7 11 0 11 C-0.66 10.01 -1.32 9.02 -2 8 C-1.69814573 5.04182816 -1.33281171 2.66562342 0 0 Z " fill="#1B1B1B" transform="translate(111,136)"/>
<path d="M0 0 C0 0.33 0 0.66 0 1 C-1.65 1 -3.3 1 -5 1 C-5 1.66 -5 2.32 -5 3 C-5.99257812 3.02578125 -6.98515625 3.0515625 -8.0078125 3.078125 C-21.75241619 3.58914013 -33.63947996 6.84496553 -46 13 C-45.890625 11.19140625 -45.890625 11.19140625 -45 9 C-31.01629022 0.7350617 -15.84096521 -0.48002925 0 0 Z " fill="#202020" transform="translate(121,38)"/>
<path d="M0 0 C1.7479503 5.24385089 2.19392201 9.47322267 2 15 C1.34 14.01 0.68 13.02 0 12 C-0.66 12.66 -1.32 13.32 -2 14 C-4.5 13.9375 -4.5 13.9375 -7 13 C-8.625 10.875 -8.625 10.875 -9 8 C-7.07527971 4.16673353 -4.67870431 0 0 0 Z " fill="#191919" transform="translate(146,101)"/>
<path d="M0 0 C0.33 0.99 0.66 1.98 1 3 C-0.00390625 4.98828125 -0.00390625 4.98828125 -1.5625 7.3125 C-7.72928122 17.1650086 -11.63005623 27.64921667 -14 39 C-14.99 38.34 -15.98 37.68 -17 37 C-14.98072648 24.65999514 -9.50509734 11.03777724 -2 1 C-1.34 0.67 -0.68 0.34 0 0 Z " fill="#0F0F0F" transform="translate(20,50)"/>
<path d="M0 0 C-1 3 -1 3 -3.484375 4.46484375 C-14.7920392 9.56411337 -25.51678081 13.49967057 -38 14 C-37.67 13.34 -37.34 12.68 -37 12 C-34.14934035 11.19457553 -31.32003607 10.48339434 -28.4375 9.8125 C-20.18405639 7.79049648 -12.70577403 4.96020129 -5.02734375 1.35546875 C-2 0 -2 0 0 0 Z " fill="#0C0C0C" transform="translate(166,208)"/>
<path d="M0 0 C0.33 0 0.66 0 1 0 C0.85566132 1.35432679 0.70943339 2.70845225 0.5625 4.0625 C0.48128906 4.81660156 0.40007813 5.57070312 0.31640625 6.34765625 C0.09091086 8.23792006 -0.18703919 10.12223511 -0.5 12 C-1.31311715 17.60678816 -1.36641052 23.28305083 -1.5625 28.9375 C-1.60568359 30.09830078 -1.64886719 31.25910156 -1.69335938 32.45507812 C-1.79884842 35.30328232 -1.90096555 38.15156529 -2 41 C-2.66 40.67 -3.32 40.34 -4 40 C-4.64767395 13.26601239 -4.64767395 13.26601239 -1 1 C-0.67 0.67 -0.34 0.34 0 0 Z " fill="#020202" transform="translate(13,84)"/>
<path d="M0 0 C1.2684375 0.12375 1.2684375 0.12375 2.5625 0.25 C4.85654844 3.69107266 4.82543056 5.21839809 4.5625 9.25 C3.5625 10.25 3.5625 10.25 0.5 10.3125 C-0.469375 10.291875 -1.43875 10.27125 -2.4375 10.25 C-4.02288318 7.73203847 -4.4748656 6.57134414 -4.125 3.5625 C-3.16230343 0.32433881 -3.16230343 0.32433881 0 0 Z " fill="#F2F2F2" transform="translate(133.4375,191.75)"/>
<path d="M0 0 C0.66 0.33 1.32 0.66 2 1 C2.4140625 3.50390625 2.4140625 3.50390625 2.625 6.5625 C2.69976562 7.57441406 2.77453125 8.58632812 2.8515625 9.62890625 C2.90054688 10.41136719 2.94953125 11.19382813 3 12 C3.47050781 11.4946875 3.94101563 10.989375 4.42578125 10.46875 C5.04839844 9.8190625 5.67101562 9.169375 6.3125 8.5 C6.92738281 7.8503125 7.54226562 7.200625 8.17578125 6.53125 C10 5 10 5 13 5 C12.39254603 9.85963179 10.27241033 13.7405518 8 18 C6.60804085 13.82412255 8.17676781 11.86525224 10 8 C9.51789063 8.5053125 9.03578125 9.010625 8.5390625 9.53125 C7.90742187 10.1809375 7.27578125 10.830625 6.625 11.5 C5.99851562 12.1496875 5.37203125 12.799375 4.7265625 13.46875 C3 15 3 15 1 15 C0.67 11.7 0.34 8.4 0 5 C-0.99 7.64 -1.98 10.28 -3 13 C-3.66 13 -4.32 13 -5 13 C-4.54554036 11.58208592 -4.08625056 10.16571954 -3.625 8.75 C-3.24214844 7.56664062 -3.24214844 7.56664062 -2.8515625 6.359375 C-2.04826333 4.13372042 -1.10288338 2.09068328 0 0 Z " fill="#111111" transform="translate(74,184)"/>
<path d="M0 0 C0.763125 0.061875 1.52625 0.12375 2.3125 0.1875 C2.6528125 1.30125 2.6528125 1.30125 3 2.4375 C4.55657532 5.69889591 6.39768854 7.11644975 9.3125 9.1875 C4.8575 8.1975 4.8575 8.1975 0.3125 7.1875 C1.3025 9.1675 2.2925 11.1475 3.3125 13.1875 C-0.15882095 11.77820303 -1.56843274 10.28144917 -3.4375 7.0625 C-4.07945313 5.97582031 -4.07945313 5.97582031 -4.734375 4.8671875 C-5.04890625 4.31289063 -5.3634375 3.75859375 -5.6875 3.1875 C-3.0234375 0.2109375 -3.0234375 0.2109375 0 0 Z " fill="#232323" transform="translate(58.6875,34.8125)"/>
<path d="M0 0 C4.62 0 9.24 0 14 0 C14.33 0.99 14.66 1.98 15 3 C13.37982158 4.33918806 11.75370657 5.6711969 10.125 7 C9.22007812 7.7425 8.31515625 8.485 7.3828125 9.25 C5 11 5 11 3 11 C3 10.34 3 9.68 3 9 C3.66 8.67 4.32 8.34 5 8 C4.67 6.35 4.34 4.7 4 3 C2.68 2.67 1.36 2.34 0 2 C0 1.34 0 0.68 0 0 Z " fill="#585858" transform="translate(187,79)"/>
<path d="M0 0 C0.598125 0.226875 1.19625 0.45375 1.8125 0.6875 C2.1425 2.0075 2.4725 3.3275 2.8125 4.6875 C5.1225 5.0175 7.4325 5.3475 9.8125 5.6875 C7.32185112 6.37457555 5.43363708 6.6875 2.8125 6.6875 C3.4725 8.6675 4.1325 10.6475 4.8125 12.6875 C3.32430543 11.7855639 1.84717187 10.86535871 0.375 9.9375 C-0.44871094 9.42703125 -1.27242187 8.9165625 -2.12109375 8.390625 C-4.1875 6.6875 -4.1875 6.6875 -5.046875 4.59765625 C-5.1875 2.6875 -5.1875 2.6875 -4 0.875 C-2.1875 -0.3125 -2.1875 -0.3125 0 0 Z " fill="#181818" transform="translate(181.1875,158.3125)"/>
<path d="M0 0 C0.66 1.32 1.32 2.64 2 4 C5.60992379 3.34414811 5.60992379 3.34414811 9 2 C9.15620438 11.37226277 9.15620438 11.37226277 8 14 C7.01 14.33 6.02 14.66 5 15 C4.5875 14.13375 4.175 13.2675 3.75 12.375 C2.05324198 8.94599852 2.05324198 8.94599852 -0.1875 5.75 C-2 3 -2 3 -2 1 C-1.34 0.67 -0.68 0.34 0 0 Z " fill="#080808" transform="translate(138,110)"/>
<path d="M0 0 C2.5625 0.1875 2.5625 0.1875 4.5625 2.1875 C4.8125 5.1875 4.8125 5.1875 4.5625 8.1875 C2.5625 10.1875 2.5625 10.1875 0 10.375 C-2.4375 10.1875 -2.4375 10.1875 -3.4375 9.1875 C-3.5703125 7.375 -3.5703125 7.375 -3.5625 5.1875 C-3.56507812 4.465625 -3.56765625 3.74375 -3.5703125 3 C-3.36228014 0.16097012 -2.84416607 0.21878201 0 0 Z " fill="#F8F8F8" transform="translate(111.4375,18.8125)"/>
<path d="M0 0 C1.73443359 0.01353516 1.73443359 0.01353516 3.50390625 0.02734375 C6.33615647 0.05075078 9.16796619 0.08354005 12 0.125 C12.495 1.115 12.495 1.115 13 2.125 C12.33057373 2.15005615 11.66114746 2.1751123 10.97143555 2.20092773 C7.87666906 2.31847076 4.78209248 2.44046486 1.6875 2.5625 C0.63498047 2.60181641 -0.41753906 2.64113281 -1.50195312 2.68164062 C-8.36052848 2.95598364 -15.17098103 3.43180652 -22 4.125 C-21 2.125 -21 2.125 -17.75 1.0078125 C-11.88689073 -0.3297093 -5.97991662 -0.08904801 0 0 Z " fill="#050505" transform="translate(111,8.875)"/>
<path d="M0 0 C4.02511566 1.21689543 7.59257117 2.49453762 11 5 C11 5.99 11 6.98 11 8 C7.7 8.33 4.4 8.66 1 9 C4.465 10.98 4.465 10.98 8 13 C5 14 5 14 2.73828125 13.00390625 C1.93777344 12.52824219 1.13726562 12.05257812 0.3125 11.5625 C-0.49574219 11.08941406 -1.30398437 10.61632812 -2.13671875 10.12890625 C-2.75160156 9.75636719 -3.36648437 9.38382813 -4 9 C-3.67 8.01 -3.34 7.02 -3 6 C1.455 5.505 1.455 5.505 6 5 C5.01 4.360625 4.02 3.72125 3 3.0625 C2.01 2.381875 1.02 1.70125 0 1 C0 0.67 0 0.34 0 0 Z " fill="#212121" transform="translate(186,146)"/>
<path d="M0 0 C4.23429756 1.31061591 8.07407404 2.94356259 12 5 C11.67 5.99 11.34 6.98 11 8 C6.545 8.495 6.545 8.495 2 9 C3.98 9.99 5.96 10.98 8 12 C8 12.66 8 13.32 8 14 C3.76570244 12.68938409 -0.07407404 11.05643741 -4 9 C-3.67 8.01 -3.34 7.02 -3 6 C0.3 5.67 3.6 5.34 7 5 C3.535 3.02 3.535 3.02 0 1 C0 0.67 0 0.34 0 0 Z " fill="#292929" transform="translate(29,66)"/>
<path d="M0 0 C2.32749345 3.49124017 2.50299316 4.89222251 2 9 C-0.01200619 11.83171242 -1.12071767 12.84987863 -4.5625 13.4375 C-7 13 -7 13 -8.8125 12 C-10.71481722 8.79609732 -10.53498173 5.62431285 -10 2 C-7.76411593 -2.34024556 -4.18639275 -1.06562725 0 0 Z M-8 2 C-8.16053815 3.87321948 -8.16053815 3.87321948 -8.125 6 C-8.12757812 6.721875 -8.13015625 7.44375 -8.1328125 8.1875 C-8.19695276 10.02089415 -8.19695276 10.02089415 -7 11 C-4.54190002 11.2500773 -4.54190002 11.2500773 -2 11 C0.31563087 9.11499729 0.31563087 9.11499729 0.25 6 C0.31563087 2.88500271 0.31563087 2.88500271 -2 1 C-5.29009793 0.55239094 -5.29009793 0.55239094 -8 2 Z " fill="#323232" transform="translate(116,18)"/>
<path d="M0 0 C4.29 0.66 8.58 1.32 13 2 C13 3.32 13 4.64 13 6 C11.54462432 6.83848804 10.08559627 7.67063934 8.625 8.5 C7.81289063 8.9640625 7.00078125 9.428125 6.1640625 9.90625 C4 11 4 11 2 11 C2 10.34 2 9.68 2 9 C2.66 9 3.32 9 4 9 C4 6.69 4 4.38 4 2 C2.68 2 1.36 2 0 2 C0 1.34 0 0.68 0 0 Z " fill="#535353" transform="translate(18,121)"/>
<path d="M0 0 C-0.11382653 1.95901454 -0.24141125 3.9172338 -0.375 5.875 C-0.44460937 6.96554688 -0.51421875 8.05609375 -0.5859375 9.1796875 C-1 12 -1 12 -3 14 C-3.33 12.68 -3.66 11.36 -4 10 C-6.76264289 9.40267181 -9.16032769 9 -12 9 C-10.57189185 7.49105554 -9.13218981 5.99307655 -7.6875 4.5 C-6.88699219 3.6646875 -6.08648437 2.829375 -5.26171875 1.96875 C-3 0 -3 0 0 0 Z " fill="#0F0F0F" transform="translate(155,27)"/>
<path d="M0 0 C4.47238653 1.41807378 8.71146306 3.11304374 13 5 C13 5.66 13 6.32 13 7 C11.35 7 9.7 7 8 7 C6.79371992 9.33214148 5.8345262 11.49642139 5 14 C4.15973604 12.23244474 3.32801278 10.46082737 2.5 8.6875 C2.0359375 7.70136719 1.571875 6.71523437 1.09375 5.69921875 C0 3 0 3 0 0 Z " fill="#1D1D1D" transform="translate(170,168)"/>
<path d="M0 0 C4.71403788 0.47939368 8.66579301 0.96834048 13 3 C13 3.66 13 4.32 13 5 C7.555 6.485 7.555 6.485 2 8 C4.97 8.99 7.94 9.98 11 11 C6.87585243 12.03103689 6.0158858 11.94701684 2.25 10.5625 C1.45078125 10.27503906 0.6515625 9.98757812 -0.171875 9.69140625 C-0.77515625 9.46324219 -1.3784375 9.23507813 -2 9 C-1.67 8.01 -1.34 7.02 -1 6 C3.95 5.01 3.95 5.01 9 4 C6.03 3.01 3.06 2.02 0 1 C0 0.67 0 0.34 0 0 Z " fill="#2E2E2E" transform="translate(191,129)"/>
<path d="M0 0 C-0.93018526 1.46300982 -1.86944027 2.92025579 -2.8125 4.375 C-3.33457031 5.18710938 -3.85664062 5.99921875 -4.39453125 6.8359375 C-6 9 -6 9 -9 11 C-9.33 8.69 -9.66 6.38 -10 4 C-11.65 3.67 -13.3 3.34 -15 3 C-12.41464321 1.27642881 -10.96188386 0.55264982 -8.0625 -0.1875 C-7.39347656 -0.36667969 -6.72445312 -0.54585937 -6.03515625 -0.73046875 C-3.75319112 -1.03268678 -2.17973341 -0.68756692 0 0 Z " fill="#161616" transform="translate(45,157)"/>
<path d="M0 0 C0.33 0 0.66 0 1 0 C1.20311079 5.24025843 0.53238422 9.58101714 -0.875 14.625 C-1.22304687 15.89601562 -1.57109375 17.16703125 -1.9296875 18.4765625 C-3.78100033 24.57103029 -3.78100033 24.57103029 -5 27 C-5.99 27.33 -6.98 27.66 -8 28 C-7.82984375 27.3915625 -7.6596875 26.783125 -7.484375 26.15625 C-6.25160929 21.69731019 -5.04890309 17.23494701 -3.9453125 12.7421875 C-3.76774414 12.01966797 -3.59017578 11.29714844 -3.40722656 10.55273438 C-3.05450331 9.10948142 -2.70485509 7.66547321 -2.35839844 6.22070312 C-1.10904843 1.10904843 -1.10904843 1.10904843 0 0 Z " fill="#0A0A0A" transform="translate(213,125)"/>
<path d="M0 0 C0.125 2.875 0.125 2.875 0 6 C-2 8 -2 8 -5.625 8.125 C-6.73875 8.08375 -7.8525 8.0425 -9 8 C-9.33 6.35 -9.66 4.7 -10 3 C-3.375 0 -3.375 0 0 0 Z " fill="#F2F2F2" transform="translate(33,134)"/>
<path d="M0 0 C0.99 0.33 1.98 0.66 3 1 C2.01 4.63 1.02 8.26 0 12 C0.94875 11.01 1.8975 10.02 2.875 9 C4.4921875 7.3125 4.4921875 7.3125 6 6 C6.66 6 7.32 6 8 6 C6.84906278 9.45281166 5.6794007 10.38082163 2.9375 12.6875 C2.20402344 13.31011719 1.47054687 13.93273437 0.71484375 14.57421875 C0.14894531 15.04472656 -0.41695312 15.51523438 -1 16 C-1.66 15.67 -2.32 15.34 -3 15 C-2.32829194 11.1936543 -1.27253436 7.64793184 0 4 C-2.97 6.475 -2.97 6.475 -6 9 C-6.66 8.67 -7.32 8.34 -8 8 C-5.36 5.36 -2.72 2.72 0 0 Z " fill="#151515" transform="translate(47,163)"/>
<path d="M0 0 C17.85649203 2.89066059 17.85649203 2.89066059 26 6 C25.67 6.99 25.34 7.98 25 9 C24.21238281 8.73445313 23.42476562 8.46890625 22.61328125 8.1953125 C14.78812183 5.65792353 7.15988843 4.01497794 -1 3 C-0.67 2.01 -0.34 1.02 0 0 Z " fill="#080808" transform="translate(123,9)"/>
<path d="M0 0 C1.32 0 2.64 0 4 0 C7 6.625 7 6.625 7 10 C7.66 10 8.32 10 9 10 C9 7.03 9 4.06 9 1 C9.33 1 9.66 1 10 1 C10 4.96 10 8.92 10 13 C9.01 13 8.02 13 7 13 C5.68 10.03 4.36 7.06 3 4 C2.87625 5.299375 2.7525 6.59875 2.625 7.9375 C2.4140625 10.15234375 2.4140625 10.15234375 2 12 C1.01 12.495 1.01 12.495 0 13 C0 8.71 0 4.42 0 0 Z " fill="#222222" transform="translate(99,193)"/>
<path d="M0 0 C0.66 0.33 1.32 0.66 2 1 C1.814375 1.928125 1.62875 2.85625 1.4375 3.8125 C0.75876119 7.01343771 0.75876119 7.01343771 2 10 C0.741875 10.04125 -0.51625 10.0825 -1.8125 10.125 C-2.52019531 10.14820313 -3.22789063 10.17140625 -3.95703125 10.1953125 C-6 10 -6 10 -9 8 C-6.03 5.36 -3.06 2.72 0 0 Z " fill="#0B0B0B" transform="translate(109,137)"/>
<path d="M0 0 C1.50390625 1.27734375 1.50390625 1.27734375 3 3 C2.9375 6.5625 2.9375 6.5625 2 10 C-0.53804876 12.34281424 -2.15686051 11.99459102 -5.625 11.875 C-9 11 -9 11 -10.5 9.1875 C-11.09011464 6.60574844 -11.04536861 5.43277026 -10 3 C-7.71484375 1.953125 -7.71484375 1.953125 -4.9375 1.25 C-4.01839844 1.00765625 -3.09929688 0.7653125 -2.15234375 0.515625 C-1.44207031 0.34546875 -0.73179688 0.1753125 0 0 Z M-9 5 C-8.67 6.65 -8.34 8.3 -8 10 C-4.58343976 10.16677282 -4.58343976 10.16677282 -1 10 C1.34973818 8.10244856 1.34973818 8.10244856 1.125 4.875 C1.08375 3.92625 1.0425 2.9775 1 2 C-2.86695678 2 -5.5088452 3.41909971 -9 5 Z " fill="#252525" transform="translate(32,132)"/>
<path d="M0 0 C-0.33 0.66 -0.66 1.32 -1 2 C-7.00303918 3.08464003 -12.91517008 3.12325483 -19 3.0625 C-19.87011719 3.05798828 -20.74023438 3.05347656 -21.63671875 3.04882812 C-23.75784293 3.0371736 -25.8789311 3.01924357 -28 3 C-25.08018334 0.49849041 -23.21076171 -0.38913398 -19.375 -0.546875 C-18.50359375 -0.58683594 -17.6321875 -0.62679687 -16.734375 -0.66796875 C-15.83203125 -0.69503906 -14.9296875 -0.72210938 -14 -0.75 C-13.09765625 -0.79253906 -12.1953125 -0.83507812 -11.265625 -0.87890625 C-7.28082904 -1.0380623 -3.85588871 -1.12903591 0 0 Z " fill="#353535" transform="translate(129,221)"/>
<path d="M0 0 C0.33 0.99 0.66 1.98 1 3 C-0.98 4.98 -2.96 6.96 -5 9 C-1.7 9 1.6 9 5 9 C5 9.66 5 10.32 5 11 C0.38 11.33 -4.24 11.66 -9 12 C-7.92321277 7.69285109 -7.04559112 6.71008678 -3.9375 3.75 C-3.20402344 3.04359375 -2.47054687 2.3371875 -1.71484375 1.609375 C-1.14894531 1.07828125 -0.58304688 0.5471875 0 0 Z " fill="#333333" transform="translate(36,142)"/>
<path d="M0 0 C1.10988281 0.08765625 2.21976563 0.1753125 3.36328125 0.265625 C6.66788135 0.74714135 9.56066331 1.59576679 12.6875 2.75 C12.6875 3.74 12.6875 4.73 12.6875 5.75 C5.4275 4.43 -1.8325 3.11 -9.3125 1.75 C-5.66046747 -0.68468835 -4.29249421 -0.376274 0 0 Z " fill="#222222" transform="translate(132.3125,2.25)"/>
<path d="M0 0 C0.598125 0.226875 1.19625 0.45375 1.8125 0.6875 C2.4375 3.0625 2.4375 3.0625 2.8125 5.6875 C2.1525 6.3475 1.4925 7.0075 0.8125 7.6875 C-1.8125 7.3125 -1.8125 7.3125 -4.1875 6.6875 C-4.875 4.875 -4.875 4.875 -5.1875 2.6875 C-3.58493056 0.24147296 -2.95482043 -0.4221172 0 0 Z " fill="#121212" transform="translate(200.1875,98.3125)"/>
<path d="M0 0 C2.75059381 -0.08107646 5.49879021 -0.14052813 8.25 -0.1875 C9.02730469 -0.21263672 9.80460937 -0.23777344 10.60546875 -0.26367188 C16.42997175 -0.33834499 16.42997175 -0.33834499 19.546875 1.51171875 C20.02640625 2.00285156 20.5059375 2.49398437 21 3 C18.4374282 3.02710123 15.87514635 3.04688771 13.3125 3.0625 C12.2306543 3.07506836 12.2306543 3.07506836 11.12695312 3.08789062 C7.28444618 3.10543632 3.73360474 2.93524221 0 2 C0 1.34 0 0.68 0 0 Z " fill="#252525" transform="translate(99,213)"/>
<path d="M0 0 C0.18451025 15.74487472 0.18451025 15.74487472 -1 23 C-1.99 23.33 -2.98 23.66 -4 24 C-3.67 16.41 -3.34 8.82 -3 1 C-1 0 -1 0 0 0 Z " fill="#2B2B2B" transform="translate(224,105)"/>
<path d="M0 0 C4.875 1.75 4.875 1.75 6 4 C4.35 4.33 2.7 4.66 1 5 C1.66 6.32 2.32 7.64 3 9 C1.35 8.67 -0.3 8.34 -2 8 C-2.33 8.99 -2.66 9.98 -3 11 C-2.01 11.66 -1.02 12.32 0 13 C-0.33 13.66 -0.66 14.32 -1 15 C-2.65 14.01 -4.3 13.02 -6 12 C-4.43358249 7.69235185 -2.31663844 3.93828536 0 0 Z " fill="#2E2E2E" transform="translate(65,179)"/>
<path d="M0 0 C3.69230769 0.69230769 3.69230769 0.69230769 5 2 C5.04063832 3.66617115 5.042721 5.33388095 5 7 C2.625 7.625 2.625 7.625 0 8 C-0.66 7.34 -1.32 6.68 -2 6 C-1.44444444 1.44444444 -1.44444444 1.44444444 0 0 Z " fill="#0A0A0A" transform="translate(22,98)"/>
<path d="M0 0 C0 0.99 0 1.98 0 3 C-0.845625 3.804375 -1.69125 4.60875 -2.5625 5.4375 C-3.7690625 6.7059375 -3.7690625 6.7059375 -5 8 C-4.95502158 10.27523089 -4.95502158 10.27523089 -4 12 C-0.84669446 11.39305845 1.18888867 10.3583335 3.75 8.4375 C4.36359375 7.98246094 4.9771875 7.52742188 5.609375 7.05859375 C6.06828125 6.70925781 6.5271875 6.35992187 7 6 C5.50468364 9.80625982 3.41019944 11.77940501 0 14 C-2.6875 14.375 -2.6875 14.375 -5 14 C-7 12 -7 12 -7.5625 9.25 C-6.73833631 4.48816536 -3.79076897 2.72703278 0 0 Z " fill="#161616" transform="translate(179,46)"/>
<path d="M0 0 C-2.44607523 2.86469884 -4.85481348 3.92891276 -8.375 5.1875 C-9.31085938 5.53167969 -10.24671875 5.87585938 -11.2109375 6.23046875 C-13.95523031 6.98764758 -16.17096621 7.14916724 -19 7 C-17.30884597 3.61769195 -13.45023891 3.05691576 -10.0625 1.8125 C-9.32064453 1.52697266 -8.57878906 1.24144531 -7.81445312 0.94726562 C-2.25133117 -1.12566558 -2.25133117 -1.12566558 0 0 Z " fill="#080808" transform="translate(145,177)"/>
<path d="M0 0 C0.66 0.33 1.32 0.66 2 1 C2 1.66 2 2.32 2 3 C-0.0954808 4.60850287 -2.18232416 6.09840316 -4.375 7.5625 C-5.27992187 8.1802832 -5.27992187 8.1802832 -6.203125 8.81054688 C-10.62495148 11.81247574 -10.62495148 11.81247574 -13 13 C-10.50869967 6.88499009 -5.394715 3.38737919 0 0 Z " fill="#141414" transform="translate(54,16)"/>
<path d="M0 0 C0.33 0 0.66 0 1 0 C1.0272367 2.52090778 1.04695207 5.04151457 1.0625 7.5625 C1.07087891 8.26697266 1.07925781 8.97144531 1.08789062 9.69726562 C1.10882603 14.24024798 0.74800682 18.51784892 0 23 C-0.66 22.67 -1.32 22.34 -2 22 C-2.02687279 20.18757948 -2.04633715 18.37504767 -2.0625 16.5625 C-2.07410156 15.55316406 -2.08570313 14.54382813 -2.09765625 13.50390625 C-2 11 -2 11 -1 10 C-0.76712992 8.31816052 -0.58735834 6.6287584 -0.4375 4.9375 C-0.35371094 4.01839844 -0.26992187 3.09929687 -0.18359375 2.15234375 C-0.12300781 1.44207031 -0.06242188 0.73179688 0 0 Z " fill="#303030" transform="translate(215,103)"/>
<path d="M0 0 C2.0625 0.4375 2.0625 0.4375 4 1 C2.68 1.33 1.36 1.66 0 2 C0.33 2.66 0.66 3.32 1 4 C3.32716 4.37400786 5.66117862 4.70764733 8 5 C9 6 9 6 9.1875 8.4375 C9 11 9 11 7 13 C4.875 12.625 4.875 12.625 3 12 C4.32 11.34 5.64 10.68 7 10 C7 9.34 7 8.68 7 8 C4.36 7.34 1.72 6.68 -1 6 C-1.042721 4.33388095 -1.04063832 2.66617115 -1 1 C-0.67 0.67 -0.34 0.34 0 0 Z " fill="#1B1B1B" transform="translate(65,29)"/>
<path d="M0 0 C0 0.66 0 1.32 0 2 C-5.61 2.99 -11.22 3.98 -17 5 C-16.67 4.01 -16.34 3.02 -16 2 C-13.41796875 1.015625 -13.41796875 1.015625 -10.1875 0.25 C-9.12917969 -0.01296875 -8.07085937 -0.2759375 -6.98046875 -0.546875 C-4.18266064 -0.97222984 -2.62468156 -0.94056385 0 0 Z " fill="#141414" transform="translate(100,2)"/>
<path d="M0 0 C0.33 0.66 0.66 1.32 1 2 C-2.3 2.33 -5.6 2.66 -9 3 C-9 2.34 -9 1.68 -9 1 C-13.29 1 -17.58 1 -22 1 C-22 0.67 -22 0.34 -22 0 C-18.70880065 -0.1964031 -15.41703066 -0.38060745 -12.125 -0.5625 C-11.18785156 -0.61857422 -10.25070313 -0.67464844 -9.28515625 -0.73242188 C-8.38925781 -0.78076172 -7.49335937 -0.82910156 -6.5703125 -0.87890625 C-5.74289551 -0.9260376 -4.91547852 -0.97316895 -4.06298828 -1.02172852 C-2 -1 -2 -1 0 0 Z " fill="#464646" transform="translate(127,183)"/>
<path d="M0 0 C0.33 1.32 0.66 2.64 1 4 C0.34 3.67 -0.32 3.34 -1 3 C-1 2.34 -1 1.68 -1 1 C-3.93443402 1.26656572 -3.93443402 1.26656572 -7 2 C-9.24180162 4.68026455 -9.24180162 4.68026455 -8.8125 7 C-7.90059285 9.24469451 -6.81466246 10.42203265 -5 12 C-9.875 11.125 -9.875 11.125 -11 10 C-11.36273601 6.15499829 -11.51362559 3.82180094 -9.4375 0.5 C-6.01717697 -1.60481417 -3.80835623 -0.87885144 0 0 Z " fill="#212121" transform="translate(62,175)"/>
<path d="M0 0 C0.66 0.33 1.32 0.66 2 1 C0.02 1.99 0.02 1.99 -2 3 C-1.071875 3.86625 -1.071875 3.86625 -0.125 4.75 C1.81347053 6.80249821 2.90014249 8.43366582 4 11 C5.65 10.34 7.3 9.68 9 9 C8.67 9.99 8.34 10.98 8 12 C5.4375 13.1875 5.4375 13.1875 3 14 C1.8001722 12.57277341 0.6154424 11.13284224 -0.5625 9.6875 C-1.22378906 8.88699219 -1.88507813 8.08648437 -2.56640625 7.26171875 C-3.27603516 6.14216797 -3.27603516 6.14216797 -4 5 C-3 2 -3 2 0 0 Z " fill="#1B1B1B" transform="translate(164,174)"/>
<path d="M0 0 C2.125 0.375 2.125 0.375 4 1 C4.625 2.875 4.625 2.875 5 5 C4.34 5.66 3.68 6.32 3 7 C0.875 6.625 0.875 6.625 -1 6 C-1.625 4.125 -1.625 4.125 -2 2 C-1.34 1.34 -0.68 0.68 0 0 Z " fill="#DBDBDB" transform="translate(132,130)"/>
<path d="M0 0 C2.72055656 0.57274875 3.67169958 1.34846263 5.375 3.5 C5.045 4.16 4.715 4.82 4.375 5.5 C3.715 4.84 3.055 4.18 2.375 3.5 C-0.125 3.08333333 -0.125 3.08333333 -2.625 3.5 C-4.99192966 6.34826598 -4.99192966 6.34826598 -4.25 9.6875 C-4.04375 10.615625 -3.8375 11.54375 -3.625 12.5 C-4.615 12.17 -5.605 11.84 -6.625 11.5 C-7.4375 8.8125 -7.4375 8.8125 -7.625 5.5 C-5.31513713 2.37489141 -3.87018 0.73717714 0 0 Z " fill="#1F1F1F" transform="translate(170.625,38.5)"/>
<path d="M0 0 C0 0.66 0 1.32 0 2 C-1.98 2.99 -1.98 2.99 -4 4 C-3.67 4.66 -3.34 5.32 -3 6 C-1.35 6 0.3 6 2 6 C0.02 6.99 0.02 6.99 -2 8 C-1.67 9.98 -1.34 11.96 -1 14 C-3.67710191 12.66144904 -3.95129094 11.27941912 -5.125 8.5625 C-5.47820312 7.75941406 -5.83140625 6.95632812 -6.1953125 6.12890625 C-7 4 -7 4 -7 2 C-2.25 0 -2.25 0 0 0 Z " fill="#272727" transform="translate(147,186)"/>
<path d="M0 0 C3.08089673 2.77280706 4.68775452 5.06326356 6 9 C5.34 9 4.68 9 4 9 C3.67 8.34 3.34 7.68 3 7 C-0.48249231 8.25756667 -3.06465849 9.7731892 -6 12 C-6.66 12 -7.32 12 -8 12 C-8 11.34 -8 10.68 -8 10 C-6.25 8.88671875 -6.25 8.88671875 -4 7.6875 C-1.79856719 6.44659233 -1.79856719 6.44659233 0 5 C0.67154684 2.28341743 0.67154684 2.28341743 0 0 Z " fill="#1B1B1B" transform="translate(188,56)"/>
<path d="M0 0 C2.31 0.33 4.62 0.66 7 1 C7 1.33 7 1.66 7 2 C5.02 2 3.04 2 1 2 C1 3.32 1 4.64 1 6 C2.65 6.33 4.3 6.66 6 7 C6 7.33 6 7.66 6 8 C4.02 8 2.04 8 0 8 C0 9.65 0 11.3 0 13 C-0.66 12.67 -1.32 12.34 -2 12 C-1.34 8.04 -0.68 4.08 0 0 Z " fill="#282828" transform="translate(122,18)"/>
<path d="M0 0 C1.25955231 3.77865693 0.48087189 5.03411786 -0.9375 8.6875 C-1.31777344 9.68136719 -1.69804687 10.67523438 -2.08984375 11.69921875 C-2.39019531 12.45847656 -2.69054687 13.21773437 -3 14 C-3.99 14 -4.98 14 -6 14 C-5.52140759 12.39566191 -5.04210442 10.79153584 -4.5625 9.1875 C-4.29566406 8.29417969 -4.02882813 7.40085937 -3.75390625 6.48046875 C-3.19612127 4.64526945 -2.60655425 2.81966274 -2 1 C-1.34 0.67 -0.68 0.34 0 0 Z " fill="#161616" transform="translate(18,71)"/>
<path d="M0 0 C2.0625 0.4375 2.0625 0.4375 4 1 C4.625 2.875 4.625 2.875 5 5 C4.34 5.66 3.68 6.32 3 7 C0.875 6.625 0.875 6.625 -1 6 C-1.042721 4.33388095 -1.04063832 2.66617115 -1 1 C-0.67 0.67 -0.34 0.34 0 0 Z " fill="#E3E3E3" transform="translate(89,130)"/>
<path d="M0 0 C0.33 0 0.66 0 1 0 C0.40711812 7.34164374 -0.238212 14.67386859 -1 22 C-1.33 22 -1.66 22 -2 22 C-2.05401695 19.08308475 -2.09368066 16.16717276 -2.125 13.25 C-2.14175781 12.425 -2.15851562 11.6 -2.17578125 10.75 C-2.18222656 9.95078125 -2.18867187 9.1515625 -2.1953125 8.328125 C-2.20578613 7.5949707 -2.21625977 6.86181641 -2.22705078 6.10644531 C-1.96777544 3.70103924 -1.19225925 2.08748506 0 0 Z " fill="#030303" transform="translate(41,95)"/>
<path d="M0 0 C1.2065625 0.0309375 1.2065625 0.0309375 2.4375 0.0625 C3.0625 1.9375 3.0625 1.9375 3.4375 4.0625 C2.7775 4.7225 2.1175 5.3825 1.4375 6.0625 C-0.6875 5.6875 -0.6875 5.6875 -2.5625 5.0625 C-3.125 3.125 -3.125 3.125 -3.5625 1.0625 C-2.5625 0.0625 -2.5625 0.0625 0 0 Z " fill="#E7E7E7" transform="translate(133.5625,87.9375)"/>
<path d="M0 0 C0.99 0 1.98 0 3 0 C2.39254603 4.85963179 0.27241033 8.7405518 -2 13 C-3.39195915 8.82412255 -1.82323219 6.86525224 0 3 C-1.32 3.99 -2.64 4.98 -4 6 C-2.84826645 3.53199953 -1.95216435 1.95216435 0 0 Z " fill="#181818" transform="translate(84,189)"/>
<path d="M0 0 C2.125 0.375 2.125 0.375 4 1 C3.67 2.65 3.34 4.3 3 6 C1.68 6 0.36 6 -1 6 C-1.625 4.125 -1.625 4.125 -2 2 C-1.34 1.34 -0.68 0.68 0 0 Z " fill="#EBEBEB" transform="translate(111,139)"/>
<path d="M0 0 C1.65 0.33 3.3 0.66 5 1 C4.67 2.65 4.34 4.3 4 6 C2.35 5.67 0.7 5.34 -1 5 C-0.67 3.35 -0.34 1.7 0 0 Z " fill="#EEEEEE" transform="translate(80,109)"/>
<path d="M0 0 C0.66 0 1.32 0 2 0 C2.33 2.64 2.66 5.28 3 8 C2.34 8 1.68 8 1 8 C1 11.96 1 15.92 1 20 C0.67 20 0.34 20 0 20 C0 13.4 0 6.8 0 0 Z " fill="#3A3A3A" transform="translate(183,99)"/>
<path d="M0 0 C0.66 0.33 1.32 0.66 2 1 C2 1.66 2 2.32 2 3 C0.52304509 4.28430862 -0.95806138 5.56580708 -2.4921875 6.78125 C-4.13813095 8.06784671 -4.13813095 8.06784671 -6 10 C-6.66 10 -7.32 10 -8 10 C-6.5682479 4.98886765 -4.01554307 3.05530451 0 0 Z " fill="#181818" transform="translate(104,96)"/>
<path d="M0 0 C1.65 0.33 3.3 0.66 5 1 C4.67 2.65 4.34 4.3 4 6 C2.35 5.67 0.7 5.34 -1 5 C-0.67 3.35 -0.34 1.7 0 0 Z " fill="#F1F1F1" transform="translate(110,79)"/>
<path d="M0 0 C-1.4258086 3.45195767 -3.09746334 5.1014256 -6.125 7.25 C-7.21167969 8.03117187 -7.21167969 8.03117187 -8.3203125 8.828125 C-8.87460938 9.21484375 -9.42890625 9.6015625 -10 10 C-10.66 9.67 -11.32 9.34 -12 9 C-5 0 -5 0 0 0 Z " fill="#0E0E0E" transform="translate(75,49)"/>
<path d="M0 0 C0.66 0.33 1.32 0.66 2 1 C-0.07143201 5.03384128 -1.96615872 6.92856799 -6 9 C-6 6 -6 6 -4.6875 4.39453125 C-4.130625 3.87246094 -3.57375 3.35039063 -3 2.8125 C-2.443125 2.28269531 -1.88625 1.75289062 -1.3125 1.20703125 C-0.6628125 0.60955078 -0.6628125 0.60955078 0 0 Z " fill="#1D1D1D" transform="translate(42,35)"/>
<path d="M0 0 C1 3 1 3 0.22265625 5.04296875 C-0.16019531 5.75066406 -0.54304687 6.45835937 -0.9375 7.1875 C-1.31777344 7.90292969 -1.69804687 8.61835938 -2.08984375 9.35546875 C-2.54037109 10.16951172 -2.54037109 10.16951172 -3 11 C-3.99 11 -4.98 11 -6 11 C-3.76687117 3.98159509 -3.76687117 3.98159509 -2 1 C-1.34 0.67 -0.68 0.34 0 0 Z " fill="#1D1D1D" transform="translate(206,152)"/>
<path d="M0 0 C2.0625 0.4375 2.0625 0.4375 4 1 C3.67 2.65 3.34 4.3 3 6 C1.35 5.67 -0.3 5.34 -2 5 C-1.125 1.125 -1.125 1.125 0 0 Z " fill="#F3F3F3" transform="translate(141,109)"/>
<path d="M0 0 C1.67542976 0.28604898 3.34385343 0.61781233 5 1 C4.67 2.32 4.34 3.64 4 5 C2.68 5.33 1.36 5.66 0 6 C-0.38218767 4.34385343 -0.71395102 2.67542976 -1 1 C-0.67 0.67 -0.34 0.34 0 0 Z " fill="#F3F3F3" transform="translate(89,88)"/>
<path d="M0 0 C0.66 0.33 1.32 0.66 2 1 C-0.07143201 5.03384128 -1.96615872 6.92856799 -6 9 C-6 6 -6 6 -4.6875 4.39453125 C-4.130625 3.87246094 -3.57375 3.35039063 -3 2.8125 C-2.443125 2.28269531 -1.88625 1.75289062 -1.3125 1.20703125 C-0.6628125 0.60955078 -0.6628125 0.60955078 0 0 Z " fill="#1F1F1F" transform="translate(63,56)"/>
<path d="M0 0 C0.66 0 1.32 0 2 0 C3.2890625 1.75 3.2890625 1.75 4.625 4 C5.07101563 4.7425 5.51703125 5.485 5.9765625 6.25 C6.31429687 6.8275 6.65203125 7.405 7 8 C8.65 7.67 10.3 7.34 12 7 C12 7.66 12 8.32 12 9 C9 11 9 11 6.984375 10.87109375 C4.4038949 9.73832394 3.66383899 8.47562643 2.25 6.0625 C1.82203125 5.35222656 1.3940625 4.64195312 0.953125 3.91015625 C0 2 0 2 0 0 Z " fill="#202020" transform="translate(153,182)"/>
<path d="M0 0 C1.07310858 3.27185553 0.89263102 5.42947592 0.0625 8.75 C-0.22947266 9.94882813 -0.22947266 9.94882813 -0.52734375 11.171875 C-0.68332031 11.77515625 -0.83929688 12.3784375 -1 13 C-1.99 12.34 -2.98 11.68 -4 11 C-3.71758359 9.53984709 -3.42373386 8.08190207 -3.125 6.625 C-2.96257813 5.81289062 -2.80015625 5.00078125 -2.6328125 4.1640625 C-2 2 -2 2 0 0 Z " fill="#212121" transform="translate(7,76)"/>
<path d="M0 0 C0.33 0 0.66 0 1 0 C0.67 4.29 0.34 8.58 0 13 C-0.99 12.67 -1.98 12.34 -3 12 C-2.69230293 10.18667846 -2.37870936 8.37435655 -2.0625 6.5625 C-1.80146484 5.04849609 -1.80146484 5.04849609 -1.53515625 3.50390625 C-1 1 -1 1 0 0 Z " fill="#0F0F0F" transform="translate(4,86)"/>
<path d="M0 0 C0.96070434 2.88211302 1.10581883 4.69850044 1.0625 7.6875 C1.05347656 8.49574219 1.04445313 9.30398437 1.03515625 10.13671875 C1.02355469 10.75160156 1.01195313 11.36648437 1 12 C0.01 12 -0.98 12 -2 12 C-2.05395478 10.37536158 -2.09277195 8.75021459 -2.125 7.125 C-2.14820312 6.22007813 -2.17140625 5.31515625 -2.1953125 4.3828125 C-2 2 -2 2 0 0 Z " fill="#050505" transform="translate(97,105)"/>
<path d="M0 0 C0.33 0.66 0.66 1.32 1 2 C0.328125 3.91015625 0.328125 3.91015625 -0.75 6.0625 C-1.09546875 6.77535156 -1.4409375 7.48820312 -1.796875 8.22265625 C-3 10 -3 10 -6 11 C-3.76687117 3.98159509 -3.76687117 3.98159509 -2 1 C-1.34 0.67 -0.68 0.34 0 0 Z " fill="#020202" transform="translate(23,61)"/>
<path d="M0 0 C1.62566606 0.47690204 3.25051311 0.95659666 4.875 1.4375 C5.77992187 1.70433594 6.68484375 1.97117188 7.6171875 2.24609375 C10 3 10 3 12 4 C12.33 3.34 12.66 2.68 13 2 C13 3.32 13 4.64 13 6 C8.71 4.68 4.42 3.36 0 2 C0 1.34 0 0.68 0 0 Z " fill="#171717" transform="translate(35,56)"/>
<path d="M0 0 C-1 3 -1 3 -3.875 4.75 C-7 6 -7 6 -10 5 C-8.71186658 4.16121545 -7.41936744 3.32913217 -6.125 2.5 C-5.40570313 2.0359375 -4.68640625 1.571875 -3.9453125 1.09375 C-2 0 -2 0 0 0 Z " fill="#000000" transform="translate(166,208)"/>
<path d="M0 0 C0.66 0.33 1.32 0.66 2 1 C2 1.66 2 2.32 2 3 C-0.97 4.32 -3.94 5.64 -7 7 C-6 3 -6 3 -3.0625 1.1875 C-2.051875 0.795625 -1.04125 0.40375 0 0 Z " fill="#1B1B1B" transform="translate(161,200)"/>
<path d="M0 0 C4.71403788 0.47939368 8.66579301 0.96834048 13 3 C13 3.66 13 4.32 13 5 C10.02277453 4.29666462 7.14743457 3.41751463 4.25 2.4375 C3.45078125 2.16808594 2.6515625 1.89867187 1.828125 1.62109375 C1.22484375 1.41613281 0.6215625 1.21117187 0 1 C0 0.67 0 0.34 0 0 Z " fill="#1B1B1B" transform="translate(191,129)"/>
<path d="M0 0 C0.66 0.33 1.32 0.66 2 1 C2 1.66 2 2.32 2 3 C-1.96 4.98 -1.96 4.98 -6 7 C-5 3 -5 3 -2.5625 1.1875 C-1.716875 0.795625 -0.87125 0.40375 0 0 Z " fill="#151515" transform="translate(150,172)"/>
<path d="M0 0 C0.33 0.99 0.66 1.98 1 3 C-1.31 4.98 -3.62 6.96 -6 9 C-6 6 -6 6 -4.6875 4.39453125 C-4.130625 3.87246094 -3.57375 3.35039062 -3 2.8125 C-2.443125 2.28269531 -1.88625 1.75289062 -1.3125 1.20703125 C-0.6628125 0.60955078 -0.6628125 0.60955078 0 0 Z " fill="#3E3E3E" transform="translate(36,142)"/>
<path d="M0 0 C3.3 0.33 6.6 0.66 10 1 C8.68 1.33 7.36 1.66 6 2 C6 2.66 6 3.32 6 4 C3.36 3.67 0.72 3.34 -2 3 C-1.34 2.01 -0.68 1.02 0 0 Z " fill="#3D3D3D" transform="translate(90,219)"/>
<path d="M0 0 C0.66 0.33 1.32 0.66 2 1 C-2.625 5.875 -2.625 5.875 -6 7 C-5.8125 5.1875 -5.8125 5.1875 -5 3 C-2.5625 1.1875 -2.5625 1.1875 0 0 Z " fill="#0D0D0D" transform="translate(172,203)"/>
<path d="M0 0 C1.32 0.33 2.64 0.66 4 1 C3.67 2.32 3.34 3.64 3 5 C0.525 4.01 0.525 4.01 -2 3 C-1.34 2.01 -0.68 1.02 0 0 Z " fill="#E1E1E1" transform="translate(179,160)"/>
<path d="M0 0 C1 3 1 3 0.25 5.625 C-1 8 -1 8 -4 9 C-2.25 2.25 -2.25 2.25 0 0 Z " fill="#0D0D0D" transform="translate(209,144)"/>
<path d="M0 0 C0.33 0 0.66 0 1 0 C0.67 3.3 0.34 6.6 0 10 C-0.66 10 -1.32 10 -2 10 C-1.85950482 8.52031676 -1.71245174 7.04125484 -1.5625 5.5625 C-1.48128906 4.73878906 -1.40007812 3.91507813 -1.31640625 3.06640625 C-1 1 -1 1 0 0 Z " fill="#040404" transform="translate(221,128)"/>
<path d="M0 0 C0.33 0 0.66 0 1 0 C1 2.31 1 4.62 1 7 C-1.475 6.01 -1.475 6.01 -4 5 C-2.69254251 3.31295807 -1.35827971 1.64639965 0 0 Z " fill="#D4D4D4" transform="translate(152,29)"/>
<path d="M0 0 C2.64 0.33 5.28 0.66 8 1 C7.67 1.99 7.34 2.98 7 4 C4.36 3.67 1.72 3.34 -1 3 C-0.67 2.01 -0.34 1.02 0 0 Z " fill="#1E1E1E" transform="translate(123,9)"/>
<path d="M0 0 C0.66 0 1.32 0 2 0 C2.33 1.98 2.66 3.96 3 6 C2.34 6 1.68 6 1 6 C0.67 6.99 0.34 7.98 0 9 C0 6.03 0 3.06 0 0 Z " fill="#313131" transform="translate(212,93)"/>
<path d="M0 0 C0.99 0 1.98 0 3 0 C3 1.65 3 3.3 3 5 C1.68 4.67 0.36 4.34 -1 4 C-1 1 -1 1 0 0 Z " fill="#E3E3E3" transform="translate(57,36)"/>
<path d="M0 0 C1.98 0.66 3.96 1.32 6 2 C5.34 3.32 4.68 4.64 4 6 C1.7522025 3.94766315 0.9977758 2.99332739 0 0 Z " fill="#DCDCDC" transform="translate(171,170)"/>
<path d="M0 0 C1.65 0 3.3 0 5 0 C3.515 2.475 3.515 2.475 2 5 C1.01 4.01 0.02 3.02 -1 2 C-0.67 1.34 -0.34 0.68 0 0 Z " fill="#DDDDDD" transform="translate(37,158)"/>
<path d="M0 0 C-1.11666174 3.34998521 -1.74694925 3.79340222 -4.5625 5.6875 C-5.20316406 6.12449219 -5.84382813 6.56148437 -6.50390625 7.01171875 C-6.99761719 7.33785156 -7.49132813 7.66398438 -8 8 C-6.48291727 4.46014029 -4.24676932 0 0 0 Z " fill="#1B1B1B" transform="translate(55,169)"/>
<path d="M0 0 C3.08089673 2.77280706 4.68775452 5.06326356 6 9 C5.34 9 4.68 9 4 9 C0 2.25 0 2.25 0 0 Z " fill="#323232" transform="translate(188,56)"/>
<path d="M0 0 C0 3 0 3 -1.3125 4.38671875 C-2.875 5.59114583 -4.4375 6.79557292 -6 8 C-6 5 -6 5 -4.6875 3.61328125 C-3.125 2.40885417 -1.5625 1.20442708 0 0 Z " fill="#212121" transform="translate(179,46)"/>
</svg>
